<?xml version="1.0" standalone="no"?>
<!DOCTYPE svg PUBLIC "-//W3C//DTD SVG 20010904//EN"
 "http://www.w3.org/TR/2001/REC-SVG-20010904/DTD/svg10.dtd">
<svg version="1.0" xmlns="http://www.w3.org/2000/svg"
 width="4400.000000pt" height="3400.000000pt" viewBox="0 0 4400.000000 3400.000000"
 preserveAspectRatio="xMidYMid meet">

<g transform="translate(0.000000,3400.000000) scale(0.100000,-0.100000)"
fill="#000000" stroke="none">
<path d="M21681 28434 c-47 -8 -87 -16 -89 -19 -9 -9 42 -5 137 10 52 9 120
13 150 11 31 -3 94 -8 141 -12 112 -9 146 -22 60 -24 -99 -1 -225 -26 -323
-63 -48 -18 -85 -36 -82 -39 3 -3 -31 8 -75 23 -45 16 -100 29 -123 30 -37 0
-39 1 -18 10 13 5 22 12 19 14 -3 3 -22 -2 -44 -12 -21 -9 -44 -17 -50 -19 -5
-1 -37 -13 -70 -26 -79 -33 -7326 -3537 -7338 -3549 -6 -5 -15 -9 -22 -9 -21
0 -246 -140 -323 -202 -277 -222 -500 -514 -629 -823 -50 -120 -113 -317 -111
-351 0 -11 17 37 38 106 153 506 485 944 905 1190 117 69 180 90 253 84 59 -6
163 -40 163 -54 0 -4 -46 -35 -102 -68 -368 -217 -716 -634 -914 -1095 -35
-82 -64 -155 -64 -164 0 -23 -24 -10 -31 18 -4 13 -7 20 -8 15 -2 -17 -39 25
-51 57 -7 18 -21 50 -31 73 -11 22 -19 46 -19 54 0 25 -47 -29 -60 -70 -7 -22
-17 -40 -22 -40 -4 0 -8 -11 -8 -24 0 -14 -5 -28 -10 -31 -6 -4 -8 -11 -5 -16
4 -5 2 -9 -3 -9 -6 0 -10 -6 -9 -12 1 -36 -4 -50 -17 -45 -18 7 -56 -226 -56
-349 0 -97 386 -6463 396 -6529 28 -187 132 -379 278 -512 29 -27 282 -193
562 -369 279 -175 516 -326 525 -334 15 -13 32 -146 109 -830 50 -448 93 -824
96 -835 3 -17 -21 -34 -156 -110 -88 -49 -160 -94 -160 -98 0 -5 -4 -6 -9 -3
-15 10 -88 -63 -105 -105 -35 -88 -30 -125 22 -161 l23 -16 -31 -22 c-30 -21
-31 -24 -25 -73 34 -264 314 -516 475 -428 19 11 44 24 55 29 11 6 94 53 185
106 152 88 166 94 185 81 52 -38 158 -96 209 -115 52 -20 56 -24 56 -53 1 -18
5 -104 9 -192 l9 -160 -153 -155 c-84 -85 -174 -182 -200 -215 l-47 -60 53 55
c290 303 422 426 617 577 169 132 364 255 547 346 172 86 242 112 445 169 179
49 323 68 505 66 77 -1 113 -3 80 -5 -643 -30 -1296 -378 -1921 -1023 -198
-205 -464 -543 -595 -757 -37 -60 -45 -69 -51 -53 -4 11 -10 20 -13 20 -4 0
-3 -4 0 -10 6 -9 -8 -15 -29 -11 -5 1 -5 -6 -2 -16 6 -14 4 -15 -5 -6 -6 6 -8
17 -3 24 4 7 8 25 9 39 1 14 9 39 18 57 21 39 21 39 3 46 -24 10 -229 -339
-326 -555 -19 -43 -39 -78 -44 -78 -33 0 -369 -231 -466 -321 l-55 -51 50 40
c136 108 297 217 467 318 8 5 -40 -105 -55 -123 -5 -7 -55 -45 -111 -85 -136
-98 -370 -333 -458 -460 -222 -323 -308 -661 -249 -979 11 -57 33 -143 50
-191 l29 -87 -46 -15 c-48 -17 -152 -83 -152 -98 0 -14 16 -9 36 13 32 36 174
99 174 78 0 -5 18 -29 40 -53 l41 -44 -71 -71 c-38 -39 -70 -75 -70 -81 0 -47
-128 85 -169 175 -17 36 -31 69 -31 73 0 4 -7 19 -14 34 -44 83 -76 397 -55
524 6 38 13 87 15 109 2 22 10 58 18 80 7 22 21 67 31 100 10 33 28 79 40 103
13 23 21 42 17 42 -13 0 -92 -166 -122 -256 -17 -48 -42 -154 -56 -234 -23
-128 -25 -163 -21 -300 3 -85 8 -193 12 -240 3 -47 7 -119 9 -160 2 -41 7 -88
10 -105 3 -16 9 -50 12 -74 12 -91 94 -343 114 -349 5 -2 10 -13 10 -24 0 -63
58 -105 3488 -2499 1828 -1275 3326 -2319 3328 -2319 2 0 23 -12 47 -27 110
-69 275 -113 453 -120 156 -7 229 3 492 63 1348 307 2501 986 3141 1848 97
131 274 417 274 443 0 7 4 13 9 13 5 0 6 5 3 10 -3 6 -1 10 5 10 6 0 8 5 5 10
-3 6 -2 10 2 10 9 0 39 69 35 83 -1 4 3 7 9 7 5 0 7 5 4 10 -3 6 -1 10 6 10 7
0 10 3 6 6 -3 4 0 12 7 20 8 7 24 50 37 96 21 77 23 103 23 358 l1 275 -41 92
c-39 86 -126 213 -146 213 -5 0 15 -30 45 -66 95 -114 153 -296 129 -405 l-9
-44 -20 45 c-25 56 -103 135 -165 166 -69 35 -82 29 -17 -9 30 -18 66 -41 80
-52 42 -33 86 -103 99 -154 l11 -49 -68 -143 c-327 -693 -954 -1297 -1829
-1762 -110 -59 -204 -107 -207 -107 -3 0 -39 -15 -79 -34 -392 -183 -849 -338
-1317 -446 -118 -28 -218 -50 -222 -50 -4 0 -10 28 -14 63 -12 100 -43 257
-66 325 -12 35 -19 65 -18 67 2 1 87 22 189 45 395 90 836 233 1182 385 203
90 512 248 617 317 41 26 76 48 78 48 11 0 215 139 337 230 463 343 843 787
1051 1226 61 128 64 132 91 128 l29 -4 -26 12 c-23 12 -25 17 -17 43 21 72
-10 161 -81 234 -28 28 -51 53 -51 55 0 7 55 25 80 27 50 4 69 -1 102 -28 27
-23 30 -23 13 -4 -46 53 -102 63 -173 31 l-42 -19 -830 537 c-456 295 -830
540 -830 543 0 13 51 32 88 32 38 0 151 -67 510 -301 12 -8 22 -12 22 -9 0 3
-96 67 -212 143 -117 76 -235 154 -263 175 -106 78 -202 200 -257 329 -15 36
-28 59 -28 52 0 -25 70 -164 115 -227 24 -35 66 -82 92 -104 l48 -41 -30 0
c-16 0 -48 -9 -70 -19 -40 -18 -40 -18 -72 6 -77 58 -166 209 -181 307 -9 54
-8 57 17 76 15 10 33 30 41 44 8 15 16 22 20 16 4 -6 5 227 4 517 -2 431 -5
541 -18 598 -14 62 -15 64 -11 20 11 -117 17 -324 11 -348 -7 -28 -52 -87 -67
-87 -5 0 -9 39 -9 86 0 103 -31 296 -65 402 l-25 77 0 833 c0 457 2 832 5 832
3 0 1133 -703 2513 -1562 1379 -859 2545 -1581 2592 -1605 110 -55 233 -90
376 -105 142 -15 256 -3 509 53 1133 250 2071 753 2656 1424 110 126 301 395
282 395 -5 0 -3 4 3 8 17 12 54 79 47 85 -3 4 -1 7 6 7 7 0 9 5 6 10 -3 6 -2
10 2 10 10 0 49 70 46 82 -2 4 2 8 9 8 6 0 8 3 5 6 -4 4 0 19 7 33 7 14 18 37
23 51 19 48 36 85 48 110 17 33 33 117 40 210 25 341 25 357 9 436 -35 168
-151 313 -338 423 -23 13 -401 233 -841 489 -440 255 -813 473 -830 485 -16
11 -49 38 -72 61 -24 22 -43 35 -43 29 0 -6 20 -29 45 -51 l45 -40 -47 -15
c-45 -15 -49 -15 -81 5 -70 43 -157 191 -169 285 -5 45 -3 52 25 80 32 32 42
32 42 2 0 -27 40 -129 50 -129 5 0 1 19 -9 43 -22 52 -41 134 -42 190 l-2 42
-6 -40 c-8 -46 -23 -76 -47 -96 -16 -13 -17 -9 -11 66 3 44 12 201 19 350 l12
269 28 31 27 30 2 -75 c2 -64 3 -56 11 55 10 145 3 469 -12 530 -8 33 -8 27
-4 -35 2 -41 7 -151 10 -245 6 -163 6 -171 -16 -207 -12 -21 -26 -38 -31 -38
-5 0 -9 39 -9 88 0 115 -23 316 -49 422 -57 238 -177 437 -336 557 -66 50
-176 100 -269 122 -92 22 -245 27 -339 12 l-48 -8 3 119 c2 65 1 118 -2 118
-3 0 -31 -599 -63 -1332 -52 -1178 -64 -1384 -82 -1366 -6 6 124 2978 131
2989 17 28 22 -5 19 -133 -1 -79 0 -106 2 -60 l4 82 87 0 c166 0 380 -76 523
-185 33 -26 96 -89 140 -141 45 -52 83 -94 85 -94 11 0 -57 89 -107 141 -88
90 -198 165 -446 305 l-235 132 38 25 c378 238 1815 1132 1844 1147 22 11 54
34 72 50 18 16 59 53 92 82 117 106 211 287 231 448 3 23 7 46 10 51 6 8 125
1997 125 2078 0 77 -10 37 -14 -55 -3 -49 -6 -120 -9 -159 -2 -38 -8 -139 -11
-224 -4 -85 -10 -159 -13 -165 -6 -8 -13 -135 -12 -220 0 -26 -24 -407 -36
-581 -3 -38 -10 -149 -16 -245 -5 -96 -13 -195 -15 -220 -3 -25 -5 -69 -4 -99
1 -84 -20 -160 -61 -221 -32 -48 -115 -128 -123 -119 -4 5 361 6290 366 6293
1 2 28 22 59 45 31 23 70 60 85 83 23 33 30 38 32 22 1 -10 -13 -293 -33 -629
-43 -752 -43 -748 -52 -870 -3 -55 -6 -103 -5 -107 1 -4 -2 -72 -8 -150 -5
-79 -12 -197 -15 -263 -4 -66 -13 -217 -20 -335 -8 -118 -16 -262 -19 -320 -3
-58 -8 -136 -10 -175 -3 -38 -7 -106 -9 -150 -3 -44 -7 -123 -11 -175 -5 -91
-7 -222 -3 -227 1 -1 47 757 101 1685 54 928 100 1714 103 1747 9 128 1 361
-17 460 -10 55 -18 91 -19 80 0 -11 6 -60 14 -110 19 -117 19 -325 0 -387 -18
-62 -69 -128 -127 -167 l-48 -31 0 43 c0 119 -44 254 -105 324 -51 58 -92 80
-172 93 -62 10 -156 -6 -214 -36 -17 -8 -33 -13 -35 -11 -3 3 -7 38 -10 78
-13 175 -74 370 -168 529 -93 160 -241 318 -371 397 l-65 40 77 35 c260 119
482 110 693 -27 96 -62 180 -132 232 -193 22 -26 44 -49 48 -52 4 -3 29 -39
57 -80 61 -91 103 -178 153 -318 22 -59 39 -98 39 -87 1 22 -76 230 -107 292
-29 55 -122 189 -172 246 -102 116 -340 280 -435 300 -5 1 -12 5 -15 8 -3 4
-1686 821 -3740 1817 -2054 995 -3789 1836 -3855 1869 -153 75 -279 126 -315
127 -15 1 -26 4 -24 7 11 18 -211 49 -336 48 -41 -1 -113 -7 -159 -15z m483
-54 c77 -9 114 -20 202 -59 60 -26 1817 -875 3904 -1887 l3795 -1839 -110 -6
c-134 -8 -207 -25 -335 -80 l-98 -41 -2149 1047 c-1181 576 -2149 1048 -2149
1049 -1 0 -4 47 -7 104 -4 92 -8 107 -33 143 -28 41 -81 85 -90 76 -3 -3 8
-13 23 -22 45 -26 83 -94 83 -147 0 -41 -4 -50 -41 -83 -74 -66 -175 -96 -326
-96 -109 0 -134 5 -190 34 -47 24 -53 43 -25 76 17 22 18 22 82 5 96 -24 247
-16 320 18 115 53 143 122 76 187 -34 33 -43 35 -88 16 -15 -6 -18 -2 -18 29
0 37 -18 56 -69 71 -18 6 -22 4 -15 -6 6 -11 5 -12 -8 -2 -8 7 -18 10 -21 6
-4 -3 -7 -1 -7 6 0 9 -10 12 -30 9 -16 -3 -30 -1 -30 4 0 5 -35 7 -77 4 -43
-3 -91 -5 -106 -5 -16 -1 -26 -5 -23 -9 3 -5 -6 -7 -21 -4 -19 4 -24 2 -18 -8
5 -9 4 -11 -4 -6 -6 4 -33 0 -59 -9 l-47 -17 -1382 674 c-760 370 -1382 675
-1383 678 0 13 186 73 262 85 109 17 104 17 212 5z m-576 -70 c23 -7 42 -16
42 -19 0 -4 -199 -103 -442 -221 -244 -118 -546 -264 -673 -326 -1461 -710
-1539 -747 -1582 -745 -23 0 -44 -3 -47 -8 -3 -4 -17 -6 -31 -3 -14 2 -25 0
-25 -4 0 -5 -15 -9 -33 -10 -41 -1 -114 -36 -158 -75 l-34 -31 35 24 c19 14
46 30 60 37 25 12 25 12 5 -6 -60 -53 -70 -104 -29 -152 l26 -31 -25 -30 -25
-29 -36 39 c-40 44 -44 65 -21 113 8 18 10 24 3 13 -7 -10 -20 -26 -28 -36 -8
-10 -977 -484 -2152 -1054 l-2137 -1035 -60 24 c-33 14 -91 28 -127 33 l-66 7
3628 1755 c1996 965 3657 1763 3692 1775 69 22 160 21 240 -5z m494 -231 c227
-111 485 -236 573 -279 88 -43 277 -135 420 -205 1332 -652 1385 -676 1408
-660 40 28 38 15 -3 -23 -52 -50 -55 -93 -9 -141 l30 -32 -26 -30 -25 -31 -44
44 c-24 23 -46 50 -48 58 -6 15 -11 -222 -12 -547 l-1 -182 35 -36 c54 -57 61
-58 124 -27 l55 28 3 -55 c3 -50 6 -57 32 -70 16 -7 70 -20 120 -29 151 -25
320 4 414 72 75 53 76 57 80 354 2 144 5 262 7 262 2 0 160 -76 351 -170 191
-93 348 -170 350 -170 2 0 63 -30 136 -66 112 -55 1091 -533 1883 -919 116
-56 487 -237 825 -402 338 -165 620 -302 625 -304 6 -2 34 -17 64 -32 l54 -29
-29 -17 c-30 -18 -72 -42 -179 -101 -33 -18 -80 -44 -105 -58 -201 -111 -878
-484 -1420 -782 -354 -195 -982 -541 -1135 -625 -268 -148 -1119 -616 -1585
-872 -250 -138 -932 -513 -1515 -834 -583 -321 -1132 -623 -1220 -671 -88 -48
-166 -88 -173 -88 -7 0 -61 26 -120 59 -59 32 -132 72 -162 89 -30 16 -255
140 -500 274 -570 314 -860 473 -935 514 -33 17 -348 191 -700 384 -352 194
-784 431 -960 527 -176 97 -340 187 -365 201 -25 13 -544 299 -1155 634 -610
336 -1177 647 -1260 693 -82 45 -400 220 -705 387 -305 168 -589 323 -630 346
-41 23 -139 76 -216 119 l-142 77 52 22 c28 12 238 112 466 224 228 111 483
235 565 275 445 215 1481 718 1685 817 129 63 318 155 420 204 101 49 385 186
630 305 366 178 446 213 451 200 3 -9 9 -171 13 -360 4 -189 11 -351 15 -360
5 -9 25 -31 44 -50 l35 -33 56 25 55 25 3 -51 c4 -63 16 -71 146 -94 149 -28
347 7 431 75 80 65 76 43 72 420 -4 399 -4 403 -33 450 -40 65 -66 81 -125 78
-48 -3 -53 -1 -53 18 0 31 -11 43 -53 61 -44 18 -50 19 -41 3 6 -10 5 -10 -8
-1 -8 7 -18 10 -21 6 -4 -3 -7 -1 -7 6 0 9 -9 12 -24 9 -15 -3 -27 0 -30 7 -4
12 166 96 1384 686 140 68 473 230 740 361 267 130 490 237 497 237 6 1 198
-90 425 -200z m-3032 -1114 c30 -3 61 -10 69 -14 24 -15 -35 -22 -89 -10 -106
23 -239 -12 -284 -73 -19 -27 -19 -29 -2 -64 19 -41 19 -39 -10 -48 -24 -7
-59 25 -69 65 -9 36 39 90 106 118 53 23 155 41 199 35 14 -1 50 -5 80 -9z
m5814 -7 c39 -9 45 -13 32 -20 -12 -7 -40 -6 -82 2 -175 33 -340 -52 -275
-141 l21 -28 -21 -11 c-43 -24 -100 49 -80 102 34 90 225 135 405 96z m-5666
-122 c-3 -110 -3 -109 -75 -131 -23 -6 -23 -6 -23 103 l0 108 32 16 c62 29 69
19 66 -96z m5784 51 c2 -23 -1 -70 -6 -104 -8 -57 -12 -63 -39 -73 -17 -5 -39
-10 -50 -10 -17 0 -19 5 -13 31 3 17 6 66 6 108 0 77 0 77 33 93 45 22 65 9
69 -45z m-5962 -62 c0 -58 1 -108 3 -112 4 -13 -62 -15 -95 -4 -24 9 -37 7
-71 -11 -23 -11 -47 -28 -54 -37 -10 -13 -12 -5 -13 45 0 46 -5 66 -20 84 -60
69 30 137 183 139 l67 1 0 -105z m5775 -12 c0 -124 1 -122 -64 -103 -40 11
-81 -6 -125 -53 l-29 -32 5 72 c5 66 3 74 -18 94 -70 66 20 140 166 136 l65
-2 0 -112z m-5485 27 c45 -83 -45 -159 -217 -182 -115 -16 -278 13 -205 36 9
3 33 1 52 -4 133 -38 328 32 313 113 -3 14 -12 32 -20 38 -12 11 -11 14 9 25
26 14 52 4 68 -26z m26 23 c48 -31 79 -95 75 -155 -2 -28 -61 -87 -113 -114
-81 -41 -169 -56 -298 -52 -99 3 -121 7 -159 28 -54 30 -58 41 -29 74 23 25
23 25 78 11 79 -22 214 -19 292 5 131 40 195 127 138 188 -33 35 -25 42 16 15z
m5748 -10 c36 -36 42 -65 20 -103 -48 -81 -286 -127 -412 -79 -23 9 -25 12
-10 20 10 6 36 5 69 -2 108 -23 244 7 283 63 21 30 20 50 -4 81 -19 24 -20 26
-3 36 25 15 27 14 57 -16z m-6314 -155 c0 -29 2 -192 4 -361 l4 -308 -47 -24
-48 -24 -6 217 c-14 465 -11 503 51 536 40 22 42 21 42 -36z m5797 -70 c-4
-66 -7 -228 -7 -358 l0 -236 -45 -22 c-25 -12 -48 -22 -51 -22 -11 0 -2 645
10 680 10 32 64 80 89 80 7 0 8 -42 4 -122z m-5149 -402 l-3 -219 -47 -41
c-46 -41 -104 -66 -198 -86 -55 -12 -227 -13 -234 -2 -3 5 -8 140 -11 302 -3
161 -8 297 -11 301 -3 5 0 9 5 9 6 0 11 7 11 15 0 12 17 15 93 15 144 1 256
31 334 91 l48 36 8 -101 c4 -55 6 -199 5 -320z m5778 142 c-4 -156 -9 -301
-12 -324 -12 -101 -161 -173 -359 -173 -103 -1 -120 6 -112 41 4 14 7 150 7
302 1 153 4 284 7 292 4 11 28 14 102 14 150 0 276 38 337 100 16 16 31 30 32
30 2 0 1 -127 -2 -282z m-10064 -2131 c464 -255 868 -477 898 -494 30 -16 354
-194 720 -395 366 -201 690 -379 720 -395 30 -17 213 -117 405 -223 193 -106
510 -280 705 -387 195 -106 364 -199 375 -205 11 -7 729 -402 1596 -878 l1576
-866 -116 -77 c-381 -252 -735 -692 -954 -1183 -37 -83 -67 -156 -67 -163 0
-6 -8 -11 -17 -12 -11 0 -13 -3 -5 -6 6 -2 10 -9 6 -14 -3 -5 -25 4 -49 21
-24 16 -46 30 -50 30 -3 0 -17 7 -31 17 -19 12 -22 18 -12 25 9 7 5 8 -11 4
-25 -5 -116 38 -148 69 -8 8 -21 15 -30 15 -23 0 -60 33 -56 50 4 12 3 12 -5
2 -7 -11 -16 -9 -46 9 -28 16 -34 24 -24 31 9 6 5 7 -12 3 -61 -16 -65 -16
-52 -7 15 10 -7 27 -107 79 -88 46 -106 59 -89 67 7 3 4 4 -8 1 -12 -3 -29 3
-42 15 -16 15 -29 19 -48 14 -23 -6 -26 -4 -21 10 5 11 1 16 -13 16 -22 0 -27
15 -7 24 6 3 0 4 -16 2 -18 -2 -35 4 -50 18 -12 12 -49 35 -82 51 -33 16 -61
33 -63 37 -2 4 -12 8 -22 8 -10 0 -20 3 -22 8 -1 4 -26 19 -54 34 -28 15 -77
43 -109 63 -32 19 -63 35 -68 35 -5 0 -7 6 -4 14 4 9 0 12 -12 9 -10 -2 -33 4
-51 15 -27 17 -29 21 -14 25 11 3 3 5 -16 6 -35 1 -107 41 -123 68 -4 7 -18
13 -30 13 -18 0 -19 2 -7 10 11 8 8 9 -12 4 -17 -3 -29 -1 -35 8 -4 7 -33 26
-63 41 -86 42 -144 84 -128 91 7 3 3 3 -9 0 -13 -3 -23 -1 -23 5 0 6 -7 11
-17 11 -9 0 -36 12 -61 26 -34 20 -41 29 -31 36 10 7 6 8 -13 4 -19 -4 -34 1
-56 19 -30 25 -56 32 -65 18 -2 -5 -3 -3 -1 3 1 6 -7 16 -17 23 -11 6 -17 15
-15 20 3 4 -5 6 -17 4 -13 -3 -32 4 -47 17 -14 12 -42 31 -63 41 -23 12 -35
24 -31 31 5 8 1 9 -12 4 -33 -14 -61 -19 -46 -8 10 7 1 17 -37 42 -28 17 -62
33 -75 34 -13 0 -22 6 -20 11 3 6 -10 19 -27 29 -24 14 -28 21 -18 28 10 7 7
8 -10 4 -22 -4 -58 7 -71 23 -3 3 -23 14 -44 24 -31 14 -36 21 -25 28 10 6 3
9 -23 9 -20 0 -43 6 -51 14 -8 8 -34 26 -58 40 -24 14 -43 30 -41 36 1 7 -5 9
-18 5 -12 -4 -26 -2 -33 3 -13 10 -63 39 -136 79 -70 38 -84 50 -69 57 7 3 4
4 -8 1 -12 -3 -29 3 -43 16 -12 11 -29 18 -37 15 -9 -3 -26 6 -42 22 -15 15
-38 28 -51 29 -13 1 -32 11 -41 21 -32 34 -91 65 -123 64 -19 0 -26 2 -19 7
10 6 6 12 -12 24 -14 10 -29 17 -33 17 -4 0 -21 11 -37 25 -16 14 -35 25 -42
25 -12 0 -88 42 -144 80 -14 9 -42 22 -62 29 -21 7 -38 17 -38 22 0 5 -6 9
-13 9 -8 0 -22 9 -32 20 -10 12 -24 19 -30 16 -7 -2 -25 7 -40 20 -15 13 -36
24 -45 24 -9 0 -30 11 -46 25 -16 14 -36 25 -46 25 -9 0 -18 3 -20 8 -1 4 -31
25 -65 47 -42 27 -58 42 -50 48 8 6 6 7 -5 3 -10 -3 -30 1 -45 9 -15 8 -32 15
-38 15 -5 0 -25 14 -44 30 -24 21 -38 27 -45 20 -5 -5 -14 -10 -20 -10 -5 0
-7 3 -3 6 3 3 -6 17 -20 30 -26 24 -48 31 -56 17 -2 -5 -3 -3 -1 3 2 11 -16
25 -71 54 -27 15 -98 55 -119 67 -4 3 -2 10 5 15 11 7 9 8 -4 4 -41 -13 -72
-18 -59 -8 15 10 -45 53 -129 92 -25 11 -55 29 -66 39 -11 10 -29 22 -41 25
-12 4 -22 11 -22 15 0 4 -15 13 -34 19 -19 7 -37 19 -40 27 -3 8 -13 15 -23
15 -10 0 -35 11 -56 25 -20 14 -37 23 -37 20 0 -3 -20 6 -44 20 -26 15 -51 23
-62 19 -14 -4 -15 -3 -6 4 10 7 7 13 -12 25 -14 10 -33 17 -41 17 -19 0 -47
25 -38 33 3 3 -8 9 -23 13 -42 10 -99 50 -82 58 7 3 4 4 -8 1 -12 -3 -32 3
-47 15 -15 12 -31 18 -37 15 -6 -4 -23 7 -39 24 -16 17 -37 31 -47 31 -10 0
-27 9 -38 19 -12 10 -47 33 -79 50 -33 18 -70 39 -83 48 -13 8 -33 13 -43 10
-12 -3 -18 0 -15 7 4 10 -25 28 -133 86 -18 10 -29 20 -26 24 4 3 -1 6 -9 6
-19 0 -117 49 -136 67 -7 7 -20 13 -28 13 -8 0 -14 5 -14 10 0 6 -8 10 -17 10
-10 0 -30 10 -44 23 -15 12 -55 36 -90 52 -80 38 -103 56 -86 68 8 6 5 7 -7 3
-12 -4 -33 3 -55 17 -20 13 -62 37 -94 52 -32 15 -69 39 -82 53 -19 21 -27 24
-37 14 -7 -7 -16 -12 -22 -12 -5 0 -6 3 -3 7 10 9 -23 43 -42 43 -9 0 -29 11
-45 25 -16 14 -34 25 -40 25 -6 0 -28 11 -49 25 -20 14 -37 23 -37 20 0 -4
-17 7 -38 23 -29 23 -42 28 -55 21 -13 -7 -17 -7 -15 2 2 7 -15 22 -37 35 -22
12 -44 26 -50 31 -5 5 -36 22 -67 37 -32 16 -55 32 -52 37 3 5 -4 9 -15 9 -11
0 -26 6 -33 13 -7 7 -28 19 -46 27 -19 7 -60 30 -93 51 -32 21 -59 36 -59 33
0 -3 -20 7 -45 21 -24 15 -50 23 -56 19 -8 -4 -9 -3 -5 4 8 13 -53 54 -70 48
-18 -7 5 59 76 223 157 363 403 693 685 921 100 81 313 220 337 220 3 0 386
-208 850 -463z m14468 165 c294 -190 505 -557 526 -916 l5 -91 -962 -540
c-529 -297 -1030 -578 -1113 -626 -83 -47 -457 -257 -831 -468 -374 -210 -687
-386 -695 -391 -13 -8 -2731 -1537 -2840 -1598 -25 -13 -228 -128 -452 -253
-224 -126 -413 -232 -421 -235 -11 -4 -15 12 -21 78 -18 221 -132 501 -285
703 -73 97 -201 224 -279 277 -41 27 -72 51 -70 53 3 3 178 101 328 183 59 32
554 305 2740 1510 404 223 933 514 1175 647 242 133 843 464 1335 735 492 271
1075 592 1295 713 220 120 418 230 440 242 22 13 42 23 45 24 3 1 39 -21 80
-47z m853 -968 c122 -41 206 -201 207 -390 l0 -60 -82 -59 c-270 -192 -493
-576 -543 -935 -9 -66 -65 -1016 -131 -2240 -65 -1196 -121 -2162 -129 -2209
-52 -309 -263 -666 -502 -847 -43 -32 -80 -61 -83 -65 -3 -3 -12 -8 -20 -11
-8 -4 -445 -272 -970 -596 l-955 -589 -45 45 c-67 68 -597 363 -662 370 -134
13 -318 -167 -384 -373 -36 -114 -34 -126 27 -160 l51 -27 -48 -31 c-59 -38
-65 -45 -59 -74 3 -13 7 -34 10 -48 8 -39 62 -84 178 -150 88 -50 103 -61 89
-70 -24 -16 -1047 -647 -1081 -666 -127 -75 -1257 -775 -1259 -781 -2 -4 -8
-8 -13 -8 -5 0 -155 -90 -333 -200 -179 -110 -356 -214 -393 -231 -263 -122
-474 -11 -508 266 -8 65 -7 694 3 2265 14 2379 15 2327 -41 2455 -39 87 -127
185 -167 185 -14 0 -30 4 -36 9 -23 21 -74 28 -156 21 -47 -5 -94 -13 -104
-18 -10 -6 -46 -20 -79 -33 -33 -12 -66 -27 -73 -32 -26 -20 7 190 53 334 86
274 289 564 499 713 47 34 682 397 1046 599 30 17 663 372 1405 790 743 418
1415 797 1495 841 205 115 1252 706 1270 716 74 44 2181 1225 2230 1250 114
58 210 73 293 44z m-17258 -124 c3 -6 -1 -7 -9 -4 -18 7 -21 14 -7 14 6 0 13
-4 16 -10z m17281 -3498 c-147 -2533 -185 -3145 -197 -3156 -8 -8 -801 -503
-1764 -1102 -962 -598 -1831 -1137 -1930 -1199 -99 -62 -414 -257 -700 -435
-286 -178 -572 -355 -635 -395 -63 -40 -378 -235 -700 -435 -322 -200 -607
-377 -635 -395 -27 -18 -306 -191 -620 -385 -313 -195 -599 -372 -635 -395
-171 -109 -511 -317 -513 -314 -1 2 0 1470 3 3262 l5 3259 60 24 c33 14 77 33
98 44 32 17 49 19 109 13 53 -4 69 -3 64 5 -9 14 3 15 24 2 13 -8 13 -10 1
-10 -24 0 0 -16 44 -30 60 -18 132 -93 170 -176 26 -56 35 -93 44 -180 8 -81
8 -669 -1 -2280 -10 -1605 -10 -2194 -2 -2260 15 -114 51 -192 121 -257 28
-27 54 -48 57 -48 3 0 34 -8 68 -18 41 -11 75 -15 98 -10 19 4 56 10 83 14 30
4 45 10 41 17 -4 6 -3 8 3 5 20 -12 145 56 462 251 174 106 332 204 351 217
32 21 1245 769 1308 806 15 9 262 161 550 337 287 177 525 322 529 322 4 0 88
-46 187 -102 177 -101 182 -103 241 -102 62 2 141 30 165 59 7 8 9 15 5 15 -4
0 -2 6 5 14 6 8 17 13 24 10 6 -2 25 9 41 26 16 16 26 30 22 30 -3 0 5 11 19
25 34 34 90 155 108 233 l15 63 -37 35 c-20 19 -32 34 -27 34 6 0 23 11 39 25
29 25 29 26 19 83 -6 31 -10 58 -9 59 1 1 1753 1082 1936 1194 327 201 580
592 635 982 9 62 67 1054 130 2227 63 1163 121 2156 129 2205 31 200 126 429
252 611 35 50 60 95 56 99 -4 5 -2 5 5 1 7 -4 29 15 55 45 36 44 198 183 204
176 1 -1 -80 -1416 -180 -3145z m-16156 2878 c0 -5 -2 -10 -4 -10 -3 0 -8 5
-11 10 -3 6 -1 10 4 10 6 0 11 -4 11 -10z m560 -320 c0 -5 -2 -10 -4 -10 -3 0
-8 5 -11 10 -3 6 -1 10 4 10 6 0 11 -4 11 -10z m7500 -2177 c225 -234 372
-541 399 -836 5 -51 8 -92 7 -93 -174 -113 -289 -228 -411 -409 -56 -84 -137
-248 -171 -348 -31 -90 -64 -245 -64 -302 0 -24 -3 -51 -6 -59 -9 -23 -138
-81 -247 -110 -105 -28 -300 -56 -397 -56 -112 0 -269 22 -263 36 3 9 -2 12
-16 9 -14 -2 -19 0 -15 7 4 6 -1 17 -11 25 -11 7 -14 13 -8 13 7 0 4 14 -7 38
-16 35 -67 152 -85 197 -5 11 -7 26 -6 33 1 6 -2 12 -6 12 -5 0 -9 8 -10 18
-3 43 -16 108 -23 117 -8 10 -22 83 -26 135 -3 42 -4 45 -12 33 -4 -6 -5 25
-3 69 2 49 -1 84 -8 91 -7 7 -7 14 0 24 8 9 8 13 0 13 -7 0 -8 8 -2 23 4 12 7
30 6 40 -2 9 0 17 3 17 4 0 8 12 9 28 3 39 129 309 214 459 205 362 508 697
808 894 l115 76 81 -58 c44 -31 114 -93 155 -136z m-7786 0 c60 -31 145 -132
191 -227 48 -99 79 -226 57 -234 -7 -2 -19 -11 -28 -19 -8 -8 -18 -13 -21 -9
-3 3 -12 1 -20 -5 -7 -6 -13 -8 -13 -3 0 5 -5 2 -10 -6 -7 -11 -10 -6 -10 21
0 51 -26 133 -68 214 -46 90 -169 217 -227 234 -75 23 -72 21 -50 34 67 37
126 38 199 0z m-136 -59 c121 -60 234 -239 266 -421 5 -30 3 -33 -21 -33 -28
0 -73 34 -73 56 0 6 -7 17 -16 25 -9 7 -29 38 -45 68 -16 31 -41 74 -55 96
-13 22 -31 54 -39 72 -19 41 -57 67 -130 88 -33 10 -64 21 -69 25 -14 14 55
50 95 50 19 0 58 -12 87 -26z m-147 -267 c-13 -13 -26 -3 -16 12 3 6 11 8 17
5 6 -4 6 -10 -1 -17z m83 -37 c-5 -4 -33 -20 -62 -35 -45 -23 -55 -26 -63 -14
-14 22 -13 23 54 56 52 26 63 28 71 16 4 -8 4 -19 0 -23z m36 -47 l21 -27 -58
-32 c-52 -30 -58 -32 -67 -16 -5 9 -15 24 -23 33 -12 15 -8 19 39 42 29 14 56
26 60 26 4 1 16 -11 28 -26z m24 -78 c-9 -13 -24 -27 -35 -30 -10 -4 -19 -10
-19 -14 0 -4 -6 -8 -12 -8 -7 0 -19 -2 -27 -4 -8 -2 -16 3 -18 11 -2 10 15 25
49 42 69 35 83 36 62 3z m-17 -67 c-6 -4 -16 -3 -22 3 -6 6 -5 13 5 19 9 6 17
5 22 -3 4 -6 2 -15 -5 -19z m1593 -128 c349 -54 759 -430 1006 -922 67 -134
135 -305 160 -406 19 -72 19 -74 0 -88 -11 -8 -32 -14 -48 -14 -15 0 -28 -4
-28 -10 0 -5 -7 -10 -15 -10 -8 0 -19 -9 -25 -20 -6 -11 -17 -20 -25 -20 -8 0
-15 -4 -15 -9 0 -15 -49 -22 -73 -11 -21 10 -21 10 -3 -4 23 -18 15 -32 -23
-39 -17 -4 -40 -16 -51 -27 -11 -11 -26 -20 -34 -20 -8 0 -16 -7 -20 -15 -3
-8 -12 -15 -19 -15 -13 0 -55 -22 -225 -116 -23 -13 -49 -24 -57 -24 -8 0 -15
-7 -15 -15 0 -8 -9 -15 -20 -15 -11 0 -20 -3 -20 -8 0 -12 -72 -47 -91 -44
-10 2 -22 -6 -28 -16 -6 -11 -22 -23 -37 -26 -14 -4 -35 -16 -47 -26 -11 -11
-27 -20 -34 -20 -8 0 -11 -4 -8 -10 4 -7 -3 -7 -19 0 -20 7 -26 6 -26 -5 0 -7
-5 -17 -11 -21 -8 -5 -10 1 -7 20 3 14 2 26 -2 26 -4 0 -20 38 -34 85 -109
348 -341 725 -595 968 -222 211 -433 322 -639 336 l-93 6 158 87 c87 47 310
165 495 262 272 143 348 178 395 185 82 12 100 12 173 1z m4297 -226 c-3 -3
-12 -4 -19 -1 -8 3 -5 6 6 6 11 1 17 -2 13 -5z m-5222 -378 c344 -131 714
-536 924 -1015 54 -121 113 -292 107 -307 -3 -7 0 -14 6 -16 7 -3 9 -12 5 -22
-6 -15 -10 -16 -22 -6 -8 6 -18 9 -22 7 -14 -9 -46 21 -37 34 4 8 3 10 -4 5
-7 -4 -12 -3 -12 3 0 6 -11 13 -25 17 -14 3 -25 10 -25 15 0 5 -11 14 -25 21
-13 6 -36 34 -51 64 -15 30 -33 54 -40 54 -11 0 -30 32 -142 240 -20 36 -45
81 -57 100 -12 19 -28 52 -36 73 -7 21 -20 46 -29 55 -8 9 -31 51 -50 92 -50
108 -135 233 -173 255 -17 10 -40 29 -50 42 -10 13 -25 23 -33 23 -8 0 -14 5
-14 10 0 6 -5 10 -11 10 -6 0 -16 6 -24 13 -31 29 -54 45 -58 40 -3 -2 -30 7
-61 21 -31 14 -71 26 -89 26 -18 0 -45 7 -61 15 -15 8 -39 15 -52 15 -13 0
-43 5 -66 10 -24 6 -81 19 -127 30 -45 10 -85 21 -88 24 -3 3 2 17 11 32 51
77 254 87 431 20z m2778 -637 c97 -50 214 -207 251 -339 24 -87 24 -131 1
-144 -11 -6 -23 -15 -26 -20 -4 -5 -14 -6 -24 -3 -9 4 -14 3 -12 -1 3 -4 -1
-13 -9 -20 -12 -11 -14 -8 -14 14 0 50 -32 149 -73 228 -64 123 -208 256 -278
256 -33 0 -28 15 13 37 51 28 105 25 171 -8z m-133 -66 c73 -36 160 -129 208
-221 40 -77 72 -177 72 -225 0 -22 -4 -25 -27 -23 -14 2 -35 14 -45 27 -10 13
-22 29 -28 36 -5 6 -33 51 -61 100 -70 121 -73 127 -80 133 -3 3 -11 19 -17
35 -15 37 -61 67 -127 85 -76 20 -89 28 -73 47 33 40 105 43 178 6z m4380
-3356 l0 -3264 -87 -41 c-111 -52 -278 -100 -300 -86 -14 8 -16 32 -13 164 1
85 6 693 10 1350 3 657 7 1049 8 871 1 -178 5 -322 8 -319 3 3 2 400 -2 882
-6 721 -10 876 -20 876 -12 0 -14 227 -16 1325 -2 1055 0 1325 10 1325 6 0 12
5 12 11 0 5 -4 8 -9 4 -6 -3 -9 3 -8 14 0 11 5 17 10 14 5 -3 12 -1 16 4 3 5
52 20 109 33 57 13 140 41 185 61 45 21 83 38 85 39 1 0 2 -1469 2 -3263z
m-7038 2808 c25 -49 62 -114 82 -144 20 -30 35 -59 33 -65 -3 -6 -17 -18 -33
-26 -16 -8 -105 -55 -199 -106 -93 -50 -184 -98 -202 -107 l-31 -17 -48 76
c-65 106 -130 241 -170 357 -35 101 -39 118 -26 116 4 -1 9 0 12 1 3 1 12 3
20 5 30 6 68 24 75 34 7 13 94 54 112 54 7 0 10 4 7 8 -3 5 8 12 23 15 28 7
85 42 91 57 2 4 10 7 18 7 9 0 12 5 8 12 -5 7 -2 9 7 6 8 -3 33 5 54 18 l39
23 41 -117 c23 -64 62 -157 87 -207z m2572 290 c4 -11 -9 -22 -44 -40 -48 -24
-50 -24 -50 -6 0 22 10 30 55 47 17 7 31 12 31 13 1 0 4 -6 8 -14z m30 -64
c17 -18 15 -20 -50 -55 -66 -35 -83 -35 -84 -1 0 7 98 70 116 75 0 0 9 -9 18
-19z m-874 -36 c0 -1 -12 -2 -26 -2 -17 0 -22 2 -13 7 10 7 39 3 39 -5z m924
-8 c14 -11 16 -17 6 -37 -11 -25 -110 -86 -110 -69 0 5 -10 19 -22 31 -12 12
-18 23 -12 25 5 2 32 16 59 33 59 34 56 34 79 17z m-2564 -7 c0 -16 46 -23 70
-10 12 6 24 10 26 7 3 -2 -22 -20 -54 -39 l-59 -36 -17 36 c-14 28 -15 37 -4
43 18 12 38 11 38 -1z m180 -2 c0 -24 -15 -36 -97 -77 -70 -35 -83 -38 -83
-24 0 12 29 34 83 65 88 51 97 55 97 36z m1375 -8 c3 -5 1 -10 -4 -10 -6 0
-11 5 -11 10 0 6 2 10 4 10 3 0 8 -4 11 -10z m-1412 -76 c-7 -20 -110 -67
-125 -58 -6 4 18 22 53 40 74 38 81 40 72 18z m2422 -3 c3 -5 -4 -12 -15 -16
-11 -4 -30 -16 -40 -28 -16 -16 -23 -18 -32 -9 -14 14 -14 13 32 41 39 23 46
25 55 12z m-245 -26 c0 -2 -29 -24 -64 -49 -45 -32 -79 -48 -111 -53 -67 -9
-52 12 47 68 53 29 90 44 105 41 13 -2 23 -6 23 -7z m260 -5 c0 -5 -7 -10 -16
-10 -8 0 -12 5 -9 10 3 6 10 10 16 10 5 0 9 -4 9 -10z m-2406 -53 c17 -13 15
-16 -28 -43 -26 -16 -49 -39 -53 -52 l-5 -23 -24 22 c-13 12 -24 27 -24 33 0
10 95 75 111 76 3 0 13 -6 23 -13z m46 -31 c0 -7 -66 -46 -76 -46 -14 1 49 50
64 50 6 0 12 -2 12 -4z m39 -25 c15 -10 6 -71 -10 -71 -17 0 -69 30 -69 40 0
5 12 16 28 24 32 18 33 18 51 7z m767 -75 c0 -15 -5 -21 -10 -16 -5 5 -6 16
-3 24 9 23 15 19 13 -8z m-111 -4 c-3 -3 -11 0 -18 7 -9 10 -8 11 6 5 10 -3
15 -9 12 -12z m-826 -392 c24 -84 155 -300 183 -300 20 0 5 -31 -22 -45 l-30
-15 1 -103 c0 -151 -31 -222 -108 -248 -129 -42 -335 116 -450 346 -33 66 -62
150 -60 178 0 12 13 20 41 27 23 6 48 15 56 20 8 6 29 17 47 25 17 8 33 18 35
22 6 14 118 64 128 58 6 -3 10 2 10 12 0 13 16 23 53 36 28 10 57 18 64 19 7
1 15 8 18 16 8 21 19 5 34 -48z m15168 -381 c-9 -6 -15 -14 -12 -18 2 -5 -2
-14 -10 -21 -8 -7 -15 -17 -15 -22 0 -11 -30 -43 -40 -43 -4 0 -19 -13 -34
-30 l-27 -30 6 30 c3 18 22 44 47 65 23 19 53 47 67 63 13 15 27 24 30 21 3
-3 -2 -10 -12 -15z m-152 -141 c-4 -13 -9 -31 -11 -40 -3 -10 -11 -15 -20 -11
-8 3 -14 -1 -14 -9 0 -8 -18 -21 -40 -28 -22 -7 -40 -17 -40 -22 0 -4 -5 -8
-11 -8 -7 0 -17 -7 -24 -17 -7 -9 -23 -17 -36 -18 -14 -1 -29 -11 -36 -26 -8
-14 -13 -18 -13 -9 -1 12 -5 10 -18 -5 -9 -11 -34 -29 -56 -40 -21 -11 -40
-26 -43 -32 -3 -7 -20 -15 -39 -19 -19 -3 -31 -10 -28 -15 5 -8 -10 -13 -29
-10 -4 1 -10 -6 -13 -14 -3 -8 -10 -12 -15 -9 -5 3 -9 0 -9 -6 0 -7 -7 -10
-14 -7 -11 4 -13 1 -9 -11 3 -9 3 -14 -2 -10 -4 4 -19 -2 -33 -12 -13 -11 -31
-20 -38 -20 -8 0 -14 -4 -14 -10 0 -5 -15 -16 -34 -24 -19 -8 -38 -21 -42 -29
-5 -9 -11 -15 -14 -15 -13 0 -66 -28 -73 -39 -4 -7 -15 -13 -22 -13 -8 0 -15
-4 -15 -10 0 -5 -6 -10 -14 -10 -7 0 -19 -7 -26 -15 -7 -8 -16 -13 -20 -10 -5
3 -11 1 -15 -5 -4 -6 -11 -7 -17 -4 -7 5 -9 1 -5 -9 4 -12 1 -15 -14 -12 -11
2 -17 0 -14 -5 3 -6 -11 -18 -32 -27 -21 -10 -41 -22 -44 -26 -3 -5 -9 -8 -13
-8 -19 3 -26 0 -26 -13 0 -10 -7 -12 -22 -8 -17 4 -20 2 -15 -11 4 -11 1 -17
-8 -17 -8 0 -15 -4 -15 -10 0 -5 -5 -10 -11 -10 -5 0 -7 6 -4 13 4 6 0 5 -7
-3 -24 -26 -63 -56 -53 -40 6 9 3 8 -7 -2 -9 -10 -37 -27 -62 -38 -25 -10 -46
-24 -46 -30 0 -5 -5 -10 -10 -10 -6 0 -29 -13 -51 -30 -23 -16 -46 -27 -52
-23 -5 3 -7 1 -4 -4 7 -12 -20 -27 -41 -24 -7 1 -11 -3 -10 -9 2 -5 -7 -16
-19 -23 -12 -6 -59 -34 -105 -62 -46 -27 -86 -49 -90 -47 -5 1 -8 -2 -8 -8 0
-5 -9 -10 -19 -10 -11 0 -22 -9 -26 -19 -4 -12 -12 -18 -21 -14 -7 3 -14 0
-14 -7 0 -6 -4 -9 -9 -6 -5 3 -12 -1 -15 -10 -4 -9 -13 -14 -21 -10 -8 3 -15
1 -15 -3 0 -5 6 -12 13 -14 7 -3 4 -6 -7 -6 -23 -1 -96 -42 -96 -54 0 -5 -5
-7 -12 -5 -6 2 -22 -6 -35 -18 -12 -11 -44 -32 -70 -45 -27 -13 -50 -27 -51
-32 -2 -4 -8 -5 -12 -2 -5 3 -21 -6 -36 -20 -16 -15 -34 -23 -43 -20 -8 3 -12
3 -8 -1 9 -9 -13 -35 -24 -28 -5 3 -9 0 -9 -6 0 -5 -16 -18 -35 -27 -19 -9
-35 -21 -35 -25 0 -5 -6 -8 -12 -7 -26 3 -39 -1 -33 -11 3 -5 -3 -10 -14 -10
-12 0 -21 -4 -21 -9 0 -11 -87 -61 -107 -61 -8 0 -12 -4 -9 -9 8 -12 -18 -32
-43 -34 -12 -1 -21 -5 -21 -10 0 -4 -4 -5 -10 -2 -5 3 -10 -3 -10 -15 0 -12
-4 -19 -9 -16 -4 3 -26 -8 -47 -24 -21 -16 -48 -30 -59 -30 -22 -1 -58 -24
-49 -32 3 -4 -11 -11 -31 -18 -20 -7 -39 -18 -42 -26 -3 -8 -9 -12 -13 -9 -5
3 -15 -4 -23 -16 -19 -26 -66 -51 -84 -45 -12 5 -17 -6 -14 -26 0 -4 -8 -5
-19 -3 -10 2 -29 -7 -42 -19 -13 -13 -36 -30 -53 -39 -16 -8 -40 -25 -52 -36
-12 -11 -33 -23 -47 -27 -14 -3 -30 -12 -37 -20 -6 -8 -15 -11 -20 -8 -5 3 -9
1 -9 -5 0 -6 -21 -22 -47 -38 -27 -15 -61 -37 -78 -48 -44 -32 -59 -40 -51
-27 5 8 1 10 -9 6 -9 -4 -14 -13 -11 -21 3 -8 1 -11 -4 -8 -6 3 -10 1 -10 -5
0 -6 -4 -8 -10 -5 -5 3 -10 1 -10 -6 0 -7 -3 -9 -6 -6 -4 4 -14 -1 -23 -11 -9
-9 -34 -26 -56 -37 -22 -11 -42 -24 -44 -29 -2 -4 -7 -2 -12 5 -7 11 -9 9 -9
-6 0 -14 -7 -21 -22 -22 -11 -1 -24 -6 -27 -11 -9 -13 -131 -95 -166 -111 -16
-8 -36 -13 -42 -12 -7 1 -13 -3 -13 -9 0 -5 -7 -10 -16 -10 -8 0 -12 -4 -9
-10 3 -5 -11 -18 -32 -27 -21 -10 -47 -26 -57 -35 -11 -10 -30 -18 -43 -18
-15 0 -23 -6 -23 -17 0 -14 -2 -15 -9 -5 -6 10 -10 7 -15 -12 -6 -23 -25 -32
-58 -27 -4 0 -4 -7 -1 -17 6 -15 5 -15 -10 -3 -15 12 -17 12 -11 -3 4 -11 1
-16 -10 -16 -9 0 -16 -5 -16 -11 0 -5 -5 -7 -10 -4 -6 3 -13 -1 -16 -9 -3 -9
-10 -13 -15 -10 -5 3 -9 1 -9 -5 0 -5 -13 -12 -30 -16 -16 -4 -30 -11 -30 -16
0 -5 -17 -17 -37 -27 -21 -9 -41 -21 -45 -27 -5 -6 -8 -4 -8 5 0 8 -6 4 -13
-10 -12 -24 -95 -72 -109 -63 -4 2 -5 -4 -1 -13 5 -14 2 -16 -16 -11 -13 3
-20 3 -17 -1 6 -6 -77 -62 -92 -62 -5 0 -19 -11 -32 -25 -13 -14 -32 -25 -42
-25 -26 0 -53 -26 -35 -34 6 -3 2 -3 -10 0 -14 3 -23 1 -23 -6 0 -6 -4 -9 -9
-6 -5 3 -15 -1 -22 -10 -16 -19 -64 -45 -73 -39 -3 3 -4 2 -1 -2 7 -9 -127
-94 -140 -89 -11 4 -36 -19 -29 -27 3 -2 -11 -12 -31 -21 -19 -9 -35 -21 -35
-26 0 -6 -5 -10 -11 -10 -5 0 -7 6 -3 13 4 6 -4 2 -18 -11 -13 -12 -28 -19
-31 -15 -4 3 -7 -1 -7 -10 0 -9 -5 -17 -11 -17 -5 0 -26 -11 -46 -25 -20 -13
-40 -22 -45 -19 -4 3 -8 0 -8 -5 0 -6 -10 -11 -22 -11 -19 0 -20 -2 -8 -10 12
-7 9 -15 -2 -9 -2 1 -22 -8 -45 -20 -24 -12 -43 -19 -43 -16 0 3 -13 -8 -30
-25 -27 -28 -42 -35 -64 -31 -5 1 -6 -5 -3 -13 4 -10 1 -13 -9 -9 -9 3 -14 -1
-14 -13 0 -9 -3 -15 -6 -11 -4 3 -29 -10 -58 -29 -28 -18 -55 -34 -60 -34 -5
0 -16 -8 -25 -19 -15 -17 -58 -37 -73 -33 -4 1 -10 -8 -13 -20 -6 -16 -9 -18
-16 -7 -7 12 -9 12 -9 0 0 -7 -6 -11 -15 -7 -8 3 -14 0 -12 -7 1 -7 -22 -24
-52 -38 -32 -16 -48 -29 -40 -32 11 -4 10 -6 -2 -6 -9 -1 -24 -10 -34 -21 -10
-11 -20 -18 -23 -15 -7 6 -73 -30 -106 -59 -16 -14 -35 -26 -43 -26 -7 0 -13
-5 -13 -11 0 -6 -9 -9 -20 -6 -11 3 -18 0 -17 -7 1 -6 -4 -10 -10 -8 -7 1 -13
-2 -13 -8 0 -5 -7 -7 -15 -4 -10 4 -13 2 -10 -7 3 -9 -10 -21 -38 -34 -23 -10
-55 -30 -70 -42 -30 -24 -53 -31 -41 -11 4 7 3 8 -5 4 -6 -4 -9 -11 -6 -16 3
-4 -2 -13 -10 -20 -8 -7 -15 -9 -15 -6 0 7 -13 -3 -47 -34 -9 -8 -19 -16 -22
-16 -22 -4 -71 -30 -71 -37 0 -4 -4 -5 -10 -2 -5 3 -10 -1 -10 -9 0 -9 -6 -16
-14 -16 -8 0 -21 -6 -28 -13 -7 -7 -29 -19 -48 -27 -19 -8 -41 -20 -48 -27 -8
-7 -18 -11 -23 -8 -5 4 -6 0 -3 -8 3 -10 -6 -19 -28 -28 -18 -7 -37 -15 -42
-17 -5 -3 -5 1 -1 8 5 9 4 11 -4 6 -6 -4 -9 -11 -6 -16 6 -9 -19 -32 -28 -24
-3 3 -15 -4 -26 -15 -12 -12 -35 -24 -51 -27 -16 -4 -29 -9 -28 -13 2 -20 -4
-29 -19 -26 -10 1 -25 -6 -33 -16 -8 -10 -25 -20 -37 -22 -12 -2 -26 -7 -30
-12 -5 -4 -2 -5 5 -1 23 14 12 -2 -14 -19 -18 -11 -24 -13 -19 -4 5 8 -8 -1
-26 -18 -19 -18 -39 -33 -44 -33 -6 0 -44 -22 -86 -49 -43 -27 -86 -52 -98
-56 -12 -3 -21 -13 -21 -21 0 -8 -4 -12 -10 -9 -5 3 -10 1 -10 -4 0 -6 -4 -11
-9 -11 -5 0 -22 -5 -38 -12 -15 -6 -31 -11 -36 -10 -4 1 -6 -3 -5 -9 2 -6 -3
-14 -11 -17 -9 -3 -11 0 -6 8 5 9 4 11 -4 6 -6 -4 -9 -12 -6 -17 4 -5 -11 -17
-32 -26 -21 -10 -47 -26 -57 -35 -22 -20 -41 -24 -30 -6 4 7 3 8 -5 4 -6 -4
-9 -11 -6 -16 3 -4 -2 -13 -10 -20 -8 -7 -15 -9 -15 -4 0 5 -5 1 -11 -9 -9
-15 -13 -16 -25 -6 -8 7 -14 8 -13 3 4 -22 -2 -33 -15 -28 -8 3 -17 0 -22 -7
-4 -8 -3 -10 4 -5 7 4 12 5 12 2 0 -9 -82 -46 -102 -46 -11 0 -16 -5 -13 -10
3 -6 -5 -14 -19 -19 -13 -6 -29 -18 -35 -28 -6 -10 -11 -14 -11 -10 0 5 -10 1
-22 -7 -12 -9 -30 -16 -38 -16 -9 0 -25 -12 -37 -28 -11 -15 -31 -28 -43 -29
-13 -1 -28 -9 -32 -18 -5 -8 -15 -15 -22 -15 -8 0 -19 -7 -26 -15 -19 -23 -27
-18 -26 16 1 30 12 39 236 180 129 81 246 154 260 161 70 39 1245 773 1248
780 2 4 8 8 13 8 12 0 1253 772 1257 782 2 4 8 8 13 8 8 0 4972 3081 5069
3147 43 29 53 29 45 1z m-3452 -925 c230 -130 257 -148 236 -156 -73 -27 -134
-65 -185 -117 -61 -62 -116 -143 -136 -197 -7 -18 -16 -33 -21 -33 -11 0 -130
65 -177 96 -19 13 -38 24 -42 24 -4 0 -37 18 -73 40 -36 22 -69 40 -73 40 -4
0 -38 20 -75 45 -37 24 -65 39 -61 32 4 -7 -2 -4 -13 6 -11 9 -23 14 -26 10
-16 -16 -5 35 19 86 79 166 233 291 338 275 17 -2 147 -70 289 -151z m365
-216 c35 -37 67 -131 52 -156 -8 -14 -9 -14 -10 2 0 31 -32 76 -65 91 -48 23
-127 -1 -186 -57 -78 -74 -121 -145 -154 -252 -21 -69 -22 -70 -58 -73 -32 -3
-37 0 -43 23 -27 107 116 351 252 431 50 30 119 44 155 32 14 -5 40 -23 57
-41z m-6 -94 c10 -9 22 -32 27 -51 9 -30 7 -37 -12 -52 -21 -18 -22 -17 -32
13 -25 79 -117 66 -204 -29 -42 -46 -91 -139 -91 -173 0 -4 -10 -16 -22 -27
l-21 -19 6 35 c4 19 23 67 42 106 82 168 232 265 307 197z m-41 -126 c81 -46
94 -57 95 -80 1 -14 -2 -24 -6 -22 -3 2 -20 -4 -37 -14 l-30 -19 -94 54 c-52
30 -98 56 -104 58 -12 4 54 76 71 76 6 0 54 -24 105 -53z m-721 -74 c96 -55
195 -111 220 -125 221 -125 213 -119 192 -141 -11 -11 -39 -21 -65 -24 -42 -5
-55 0 -169 65 -156 89 -177 101 -335 191 l-131 75 52 31 c28 18 53 31 56 30 3
-2 84 -47 180 -102z m623 -78 c57 -31 87 -53 87 -64 0 -22 -49 -99 -86 -133
-16 -15 -45 -34 -65 -42 -45 -19 -78 -4 -93 42 -9 24 -26 41 -68 65 l-57 32
60 29 c44 21 61 35 66 55 3 14 13 41 20 60 13 30 16 32 31 18 9 -8 56 -36 105
-62z m157 -18 c-28 -85 -65 -150 -120 -210 -105 -115 -206 -127 -247 -29 -14
35 -14 37 8 55 23 18 23 18 32 -5 24 -66 77 -76 151 -27 55 37 109 112 132
184 13 38 43 82 60 85 1 0 -7 -24 -16 -53z m1148 -61 c78 -44 141 -80 139 -82
-1 -1 -42 7 -92 17 -49 10 -122 19 -162 19 l-72 0 6 58 c5 51 17 76 34 69 3
-1 69 -38 147 -81z m-238 1 c0 -52 -130 -3023 -133 -3031 -2 -5 -9 10 -17 33
-17 53 -63 104 -130 144 l-54 33 -1 89 c0 124 -11 140 -153 226 -98 60 -120
69 -161 69 -115 0 -258 -123 -345 -297 -43 -86 -62 -159 -71 -273 -6 -78 -10
-90 -50 -150 -220 -334 -278 -723 -131 -874 23 -23 90 -71 150 -106 103 -60
114 -65 185 -70 l76 -5 -65 -37 c-152 -85 -301 -107 -405 -60 -126 58 -184
172 -192 377 -5 150 94 3076 105 3087 12 12 1376 866 1385 867 4 1 7 -10 7
-22z m-1300 -165 c0 -9 11 -34 25 -54 31 -45 72 -56 133 -35 54 19 54 11 0
-13 -78 -35 -153 -18 -195 43 -36 52 -38 65 -11 70 43 8 48 7 48 -11z m1711
-338 c370 -82 594 -405 640 -923 12 -126 11 -193 -9 -574 -16 -310 -25 -434
-34 -443 -26 -24 -759 -496 -764 -492 -2 3 2 148 11 323 21 439 20 473 -9 537
-28 63 -57 91 -111 106 -38 10 -101 5 -149 -14 -18 -7 -19 -3 -13 82 4 49 18
375 33 724 14 349 27 645 30 657 3 18 12 23 47 26 114 10 259 6 328 -9z
m-6804 -836 c-1 -90 -3 -17 -3 162 0 179 2 252 3 163 2 -90 2 -236 0 -325z
m4973 445 c0 -16 -22 -691 -50 -1502 -38 -1138 -52 -1476 -62 -1482 -17 -11
-91 -22 -114 -17 -22 4 -21 -21 -10 343 4 138 9 309 11 380 2 72 6 195 9 275
9 218 15 410 26 770 34 1090 37 1174 47 1177 4 2 35 21 68 43 33 22 63 40 68
40 4 0 7 -12 7 -27z m-414 -324 c-6 -95 -8 -103 -39 -142 -41 -51 -204 -285
-242 -347 -15 -25 -35 -51 -43 -58 -9 -7 -17 -20 -17 -30 0 -11 -9 -18 -27
-20 -16 -2 -28 1 -28 7 0 6 9 11 21 11 11 0 17 5 14 10 -3 6 -34 9 -69 7 -56
-2 -62 -1 -58 15 2 10 14 18 26 19 11 0 16 3 9 5 -6 3 -29 1 -50 -5 -39 -11
-73 2 -40 15 34 13 19 34 -24 34 -36 0 -41 2 -36 20 4 14 0 20 -12 20 -9 0
-21 4 -27 10 -5 5 -23 11 -39 12 -17 1 -34 8 -40 14 -5 7 -19 14 -30 17 -20 4
-20 4 0 12 10 5 26 15 35 22 17 14 713 452 719 453 2 0 1 -45 -3 -101z
m-11082 -127 c72 -39 167 -147 216 -246 22 -46 42 -95 44 -108 1 -13 6 -29 10
-36 5 -8 2 -10 -8 -6 -14 6 -96 -49 -105 -70 -2 -4 -7 -2 -12 5 -7 11 -9 10
-9 -4 0 -14 -6 -16 -32 -12 -23 4 -29 2 -18 -4 8 -5 18 -7 24 -4 5 3 6 1 2 -5
-4 -6 -13 -9 -21 -5 -8 3 -15 0 -15 -6 0 -6 -6 -11 -14 -11 -19 0 -67 -26 -67
-36 1 -5 -10 -8 -24 -8 -13 1 -22 -3 -19 -7 3 -5 0 -9 -6 -9 -6 0 -8 -4 -5
-10 3 -6 -4 -10 -18 -10 -14 0 -30 -6 -36 -14 -13 -15 -116 -68 -127 -66 -4 1
-11 -5 -16 -14 -5 -9 -13 -14 -19 -11 -5 4 -9 -2 -9 -11 0 -27 -13 -7 -40 61
-40 100 -90 177 -164 250 -64 63 -91 80 -174 111 -20 8 9 28 228 154 138 80
266 151 283 157 41 16 90 8 151 -25z m2095 -107 l161 -100 0 -70 c0 -38 3
-128 7 -199 l6 -129 -144 6 c-246 10 -467 -32 -768 -148 -182 -70 -342 -152
-507 -258 l-129 -84 -3 56 c-2 38 1 58 10 64 7 4 244 142 527 307 319 186 530
315 555 340 50 48 82 126 98 238 6 45 14 81 18 80 4 -2 80 -48 169 -103z
m8971 -300 l-13 -386 -60 -112 c-297 -551 -481 -1125 -513 -1606 l-7 -103 -41
-18 c-22 -10 -53 -20 -67 -24 l-26 -6 -2 73 c0 39 -6 113 -12 162 -6 50 -8
144 -5 210 3 66 8 180 12 253 3 72 9 132 13 132 5 0 14 47 20 105 13 113 18
135 32 135 5 0 9 5 9 11 0 5 -4 8 -9 4 -6 -3 -5 9 1 27 6 18 13 52 15 76 3 23
9 42 14 42 5 0 9 18 9 40 0 22 5 40 10 40 6 0 10 17 10 38 0 21 3 42 6 45 11
11 43 111 44 135 0 12 5 22 10 22 6 0 10 13 10 29 0 17 5 33 10 36 6 4 8 10 5
15 -3 5 -1 11 5 15 5 3 10 14 10 24 0 10 7 32 15 47 8 16 15 39 15 52 0 12 5
22 10 22 6 0 10 7 10 15 0 8 5 15 11 15 5 0 7 5 3 11 -3 6 0 15 7 20 11 7 11
9 1 9 -10 0 -10 4 2 16 9 8 19 27 22 42 3 15 12 42 20 60 8 18 14 42 14 52 0
11 5 20 11 20 5 0 7 5 4 10 -3 6 -1 10 5 10 7 0 10 7 6 15 -3 8 -1 15 5 15 6
0 8 4 5 9 -3 5 1 14 9 21 8 7 12 17 8 23 -4 6 0 8 10 4 19 -7 23 9 5 17 -9 3
-7 9 6 20 11 9 17 16 13 16 -10 0 63 117 156 250 103 147 138 192 144 186 3
-3 0 -179 -7 -391z m-8750 -25 c4 -161 3 -180 -11 -180 -19 0 -29 95 -29 280
0 109 1 113 17 97 15 -15 19 -44 23 -197z m1415 -700 c424 -265 783 -497 798
-514 96 -107 305 -402 293 -414 -2 -1 -436 271 -965 605 -529 335 -1004 633
-1056 665 -103 62 -333 153 -414 164 -49 6 -51 8 -52 38 -1 17 -4 101 -7 187
l-7 155 320 -201 c176 -111 667 -419 1090 -685z m6580 840 c3 -6 -1 -7 -9 -4
-18 7 -21 14 -7 14 6 0 13 -4 16 -10z m85 -20 c0 -13 -5 -18 -15 -14 -11 5
-12 9 -2 20 16 18 17 17 17 -6z m-11002 -16 c83 -41 175 -143 233 -257 61
-124 66 -166 9 -87 -22 30 -58 90 -81 133 -68 130 -116 173 -223 201 -79 20
-94 36 -35 36 28 0 64 -10 97 -26z m11239 -140 c-3 -3 -12 -4 -19 -1 -8 3 -5
6 6 6 11 1 17 -2 13 -5z m-11234 -82 l37 -38 -98 -56 -97 -56 -30 21 c-38 27
-46 38 -36 54 6 12 168 112 181 113 3 0 23 -17 43 -38z m868 -36 c13 -9 -39
-43 -275 -180 -322 -186 -347 -196 -411 -156 l-37 23 59 33 c32 18 175 100
318 182 l260 150 35 -21 c19 -11 42 -25 51 -31z m-783 -83 c11 -27 23 -58 27
-71 8 -27 60 -68 98 -77 l28 -8 -43 -25 c-57 -33 -78 -52 -78 -70 0 -23 -30
-52 -53 -52 -31 0 -101 45 -131 85 -15 19 -39 61 -53 92 l-26 56 24 18 c13 9
27 15 31 13 4 -3 8 -2 8 3 0 8 54 36 66 33 4 -1 10 3 14 10 6 10 25 17 55 19
6 1 3 6 -5 11 -13 8 -13 10 1 10 10 0 24 -18 37 -47z m8327 -24 c61 -15 51
-22 -12 -8 -27 6 -65 25 -84 41 l-34 29 42 -25 c23 -14 62 -31 88 -37z m-5375
27 c229 -47 214 -38 1350 -755 569 -359 1043 -662 1052 -674 26 -33 112 -231
152 -348 66 -198 78 -287 83 -636 l6 -311 -34 -17 c-63 -32 -313 -208 -419
-294 -400 -325 -802 -778 -1080 -1218 -29 -46 -56 -83 -62 -83 -5 0 -6 -4 -3
-10 3 -5 1 -10 -4 -10 -6 0 -11 9 -11 21 0 11 -4 17 -10 14 -5 -3 -20 3 -32
14 -22 22 -68 29 -68 11 0 -5 -9 -10 -20 -10 -22 0 -23 1 -14 24 3 9 12 16 20
16 8 0 14 5 14 11 0 6 -17 9 -42 7 -41 -3 -43 -2 -40 23 3 23 -1 27 -31 33
-19 4 -42 4 -51 0 -9 -3 -16 -1 -16 5 0 6 6 11 13 12 6 0 3 4 -8 9 -11 5 -14
9 -7 9 7 1 20 7 27 15 12 12 10 14 -13 13 -59 -2 -102 3 -102 13 0 6 7 10 15
10 8 0 15 5 15 11 0 6 -17 9 -42 7 -40 -3 -43 -1 -40 21 3 20 0 23 -17 18 -12
-3 -26 2 -36 13 -9 10 -24 16 -36 13 -10 -3 -19 0 -19 6 0 6 7 11 15 11 8 0
15 5 15 10 0 6 -9 10 -20 10 -11 0 -20 5 -20 10 0 6 -16 10 -35 10 -19 0 -35
5 -35 10 0 6 7 10 15 10 8 0 15 5 15 11 0 8 -14 10 -40 6 -38 -5 -40 -4 -40
23 0 23 -4 27 -19 23 -11 -3 -21 2 -25 12 -4 13 -13 15 -36 10 -19 -4 -30 -3
-30 4 0 6 7 11 15 11 8 0 15 5 15 10 0 6 -9 10 -20 10 -11 0 -20 5 -20 10 0 6
-16 10 -35 10 -19 0 -35 5 -35 10 0 6 7 10 15 10 8 0 15 5 15 11 0 8 -14 10
-40 6 -38 -5 -40 -4 -40 23 0 23 -4 27 -19 23 -11 -3 -21 2 -25 12 -4 13 -13
15 -36 10 -19 -4 -30 -3 -30 4 0 6 7 11 15 11 8 0 15 5 15 10 0 6 -9 10 -20
10 -11 0 -20 5 -20 10 0 6 -11 10 -23 10 -13 0 -32 9 -42 20 -10 11 -27 20
-38 20 -14 0 -18 5 -14 20 5 18 0 20 -38 20 -26 0 -45 -5 -48 -12 -4 -10 -7
-10 -18 0 -11 10 -10 12 4 12 9 0 17 5 17 10 0 6 -7 10 -15 10 -8 0 -15 5 -15
10 0 6 7 10 15 10 8 0 15 5 15 10 0 6 -9 10 -20 10 -11 0 -20 5 -20 10 0 6
-11 10 -23 10 -13 0 -32 9 -42 20 -10 11 -26 20 -37 20 -11 0 -18 7 -18 20 0
17 -7 20 -39 20 -22 0 -41 -5 -44 -12 -4 -10 -7 -10 -18 0 -11 10 -10 12 4 12
9 0 17 5 17 10 0 6 -7 10 -15 10 -8 0 -15 5 -15 10 0 6 5 10 11 10 16 0 43 30
34 38 -4 4 -10 1 -12 -5 -5 -15 -43 -17 -43 -3 0 6 -11 10 -23 10 -13 0 -32 9
-42 20 -10 11 -26 20 -37 20 -11 0 -18 7 -18 20 0 17 -7 20 -39 20 -22 0 -41
-5 -44 -12 -4 -10 -7 -10 -18 0 -11 10 -10 12 4 12 9 0 17 5 17 10 0 6 -7 10
-15 10 -8 0 -15 5 -15 10 0 6 5 10 11 10 16 0 43 30 34 38 -4 4 -10 1 -12 -5
-5 -15 -43 -17 -43 -3 0 6 -11 10 -23 10 -13 0 -32 9 -42 20 -10 11 -29 20
-42 20 -19 0 -22 3 -14 18 8 15 4 17 -32 20 -23 1 -43 7 -45 12 -2 6 -10 10
-18 10 -8 0 -14 5 -14 10 0 6 7 10 15 10 8 0 15 5 15 10 0 6 -9 10 -20 10 -11
0 -20 5 -20 10 0 6 -11 10 -23 10 -13 0 -32 9 -42 20 -10 11 -29 20 -42 20
-19 0 -22 3 -14 18 8 15 4 17 -32 20 -23 1 -43 7 -45 12 -2 6 -10 10 -18 10
-8 0 -14 5 -14 10 0 6 7 10 15 10 8 0 15 5 15 10 0 6 -9 10 -20 10 -11 0 -20
5 -20 10 0 6 -11 10 -23 10 -13 0 -32 9 -42 20 -10 11 -29 20 -42 20 -19 0
-22 3 -14 18 8 15 4 17 -31 20 -22 1 -46 -2 -53 -8 -9 -8 -15 -8 -20 0 -3 5 1
10 9 10 9 0 16 5 16 10 0 6 -7 10 -15 10 -8 0 -15 5 -15 10 0 6 7 10 15 10 8
0 15 5 15 10 0 6 -9 10 -20 10 -11 0 -20 5 -20 10 0 6 -11 10 -24 10 -15 0
-34 12 -49 30 -26 30 -47 39 -47 20 0 -5 -9 -10 -20 -10 -11 0 -20 -7 -20 -15
0 -8 9 -15 20 -15 11 0 20 -7 20 -15 0 -22 -13 -18 -51 15 -30 26 -32 30 -13
30 13 0 24 8 27 19 4 17 1 18 -26 10 -20 -5 -35 -5 -41 1 -7 7 -3 10 9 10 17
0 18 2 5 10 -10 6 -11 10 -2 10 6 0 12 5 12 10 0 6 -18 10 -39 10 -36 0 -48 9
-51 38 -1 4 -9 15 -17 25 -21 22 -93 24 -93 2 0 -8 9 -15 20 -15 11 0 20 -7
20 -15 0 -22 -13 -18 -51 15 -30 26 -32 30 -13 30 13 0 24 8 27 19 4 17 1 18
-26 10 -20 -5 -35 -5 -41 1 -7 7 -3 10 9 10 17 0 18 2 5 10 -10 6 -11 10 -2
10 6 0 12 5 12 10 0 6 -18 10 -39 10 -36 0 -48 9 -51 38 -1 4 -9 15 -17 25
-21 22 -93 24 -93 2 0 -8 9 -15 20 -15 11 0 20 -7 20 -15 0 -22 -13 -18 -51
15 -30 26 -32 30 -13 30 13 0 24 8 27 19 4 17 1 18 -26 10 -20 -5 -35 -5 -41
1 -7 7 -3 10 10 10 16 0 17 2 4 10 -10 6 -11 10 -2 10 6 0 12 5 12 10 0 6 -16
10 -36 10 -27 0 -41 7 -60 29 -25 30 -64 33 -64 5 0 -21 -14 -17 -51 16 -30
26 -32 30 -13 30 13 0 24 8 27 19 4 17 1 17 -35 8 -28 -7 -43 -6 -51 2 -10 10
13 16 61 14 9 -1 8 5 -4 18 -11 13 -30 19 -57 19 -34 0 -39 2 -34 20 4 15 0
20 -13 20 -11 0 -21 4 -24 9 -3 5 -15 7 -26 4 -15 -4 -20 0 -20 15 0 32 -81
92 -125 92 -32 0 -37 3 -32 20 4 15 0 20 -16 21 -21 0 -21 1 -2 9 18 8 17 9
-7 9 -15 1 -30 -3 -33 -9 -9 -15 -25 -12 -25 5 0 8 -5 15 -11 15 -5 0 -7 -6
-3 -12 5 -10 4 -10 -6 -1 -11 10 -18 9 -34 -4 -12 -10 -9 -4 7 13 15 16 27 37
27 46 0 39 220 356 384 553 756 911 1693 1403 2396 1261z m8591 -989 c-27
-888 -27 -893 24 -1039 21 -61 68 -142 102 -176 7 -7 13 -16 12 -20 0 -6 -297
-201 -631 -416 l-61 -38 7 323 c4 178 11 389 17 469 33 488 167 947 431 1478
66 133 121 241 122 240 1 -2 -9 -371 -23 -821z m-10331 604 l0 -59 -69 -51
c-38 -28 -71 -51 -74 -51 -3 0 -7 40 -9 90 l-3 89 48 12 c26 6 49 14 51 18 3
3 16 7 30 9 25 2 26 0 26 -57z m11675 -93 l84 -42 -51 -13 c-65 -17 -133 -60
-182 -115 -30 -33 -40 -38 -46 -27 -5 8 -14 15 -20 15 -5 1 -14 2 -18 3 -5 0
-17 9 -28 19 -10 10 -34 24 -52 31 l-33 14 38 39 c65 66 152 116 205 118 10 0
56 -19 103 -42z m1573 -30 c20 -89 69 -174 137 -242 l63 -62 -102 -66 c-55
-36 -229 -150 -385 -252 -156 -102 -290 -186 -297 -186 -8 0 -38 25 -69 56
-71 73 -127 182 -129 254 l-1 53 380 248 c209 136 382 248 385 248 3 1 11 -23
18 -51z m1081 -705 c405 -235 774 -449 820 -476 l84 -50 -39 -13 c-21 -8 -40
-14 -42 -14 -2 0 -1 -4 2 -9 5 -7 -1023 584 -1144 658 -8 5 -129 76 -268 157
-226 132 -252 149 -236 161 48 35 56 31 823 -414z m-544 210 c802 -466 1353
-787 1380 -806 88 -60 128 -123 128 -202 0 -37 -13 -81 -52 -174 -387 -922
-1463 -1649 -2913 -1966 -284 -63 -416 -63 -567 -2 -51 20 -1707 1031 -1738
1061 -10 8 51 53 263 191 151 99 334 219 407 266 l132 87 43 -25 c73 -43 82
-39 442 197 178 117 330 219 337 226 18 18 16 38 -6 58 -19 17 -17 20 61 94
74 71 211 172 232 172 5 0 29 -9 53 -21 27 -13 57 -20 77 -17 40 4 668 412
687 446 11 19 9 25 -11 47 -13 13 -32 27 -42 31 -15 4 22 33 154 119 502 330
613 402 618 400 3 -1 145 -83 315 -182z m-1665 -48 c-7 -22 -14 -44 -16 -50
-2 -5 -3 22 -1 60 1 39 7 73 12 77 15 11 18 -41 5 -87z m144 -196 c86 -51 117
-75 157 -125 27 -34 72 -83 101 -108 28 -25 50 -47 47 -50 -2 -2 -111 -74
-243 -160 -262 -172 -272 -176 -350 -133 -49 26 -79 52 -75 64 2 4 25 46 51
93 65 120 114 258 138 393 11 63 20 121 20 128 0 6 11 0 24 -14 13 -13 71 -53
130 -88z m-464 51 c0 -5 -10 -10 -21 -10 -44 0 -116 -47 -195 -127 -64 -64
-86 -81 -103 -76 -12 3 -21 9 -21 14 0 18 155 166 195 187 42 22 145 31 145
12z m-7288 -199 c30 -18 33 -23 93 -171 101 -251 155 -471 171 -696 6 -84 5
-93 -12 -102 -29 -15 -90 -23 -118 -16 -22 5 -26 13 -31 62 -16 135 -84 431
-111 483 -8 16 -14 36 -14 45 0 38 -108 272 -229 496 l-42 78 133 -82 c73 -45
145 -89 160 -97z m7036 127 c-29 -29 -69 -71 -87 -93 -31 -38 -32 -38 -14 -7
17 31 136 152 150 152 3 0 -19 -24 -49 -52z m316 39 c16 -12 14 -13 -17 -9
-51 6 -135 -36 -204 -100 -56 -53 -153 -188 -153 -214 0 -8 -4 -14 -9 -14 -9
0 18 80 46 134 72 139 265 255 337 203z m40 -53 c61 -62 60 -172 -2 -237 -30
-31 -42 -22 -42 31 0 18 -5 42 -10 52 -9 16 -15 17 -39 9 -45 -16 -55 -34 -52
-95 3 -75 -14 -101 -75 -110 -39 -6 -48 -11 -57 -35 -11 -28 -37 -48 -37 -29
0 6 -11 10 -25 10 -14 0 -25 5 -25 10 0 6 -9 10 -21 10 -11 0 -17 4 -14 10 4
6 -1 7 -11 3 -15 -5 -16 -2 -11 27 10 45 61 145 108 207 104 139 247 202 313
137z m-6993 -366 c260 -164 377 -224 487 -252 l84 -21 -339 -211 c-186 -116
-339 -211 -340 -210 -1 1 -6 51 -12 113 -18 189 -64 384 -138 582 -31 84 -76
189 -90 214 -3 4 26 -12 64 -36 37 -24 165 -105 284 -179z m1309 167 c0 -25
-4 -35 -16 -35 -8 0 -12 -4 -9 -10 3 -5 -1 -10 -10 -10 -9 0 -13 5 -10 10 7
12 3 12 -19 4 -9 -3 -13 -10 -10 -15 3 -5 2 -9 -3 -8 -16 4 -63 -13 -58 -21 8
-14 -17 -17 -80 -13 -96 7 -96 13 0 42 50 15 117 41 150 59 33 17 61 31 63 32
1 0 2 -16 2 -35z m5629 -104 c50 -26 52 -28 36 -44 -15 -16 -19 -15 -61 13
-24 17 -44 37 -44 45 0 20 6 19 69 -14z m-5939 8 c12 -9 12 -10 -4 -5 -10 4
-26 1 -35 -6 -14 -12 -14 -11 -2 5 16 20 21 21 41 6z m490 -1533 c0 -1489 0
-1514 -20 -1537 -19 -24 -19 -15 -13 1501 5 1402 8 1550 29 1550 2 0 4 -681 4
-1514z m5415 1482 c55 -36 43 -52 -14 -21 -27 15 -47 31 -45 35 8 13 22 9 59
-14z m-5471 -3067 l-6 -133 -22 54 c-33 80 -66 117 -154 173 l-80 49 -4 82
c-4 70 -8 88 -31 117 -33 44 -215 164 -265 175 -142 32 -354 -147 -446 -377
-26 -66 -30 -92 -34 -196 -2 -66 -7 -122 -12 -125 -19 -13 -94 -136 -139 -230
-121 -251 -149 -478 -78 -633 33 -72 54 -92 187 -180 123 -81 182 -103 255
-94 25 2 45 3 45 0 0 -10 -189 -92 -240 -104 -135 -31 -253 -10 -339 59 -114
92 -150 217 -150 522 -1 91 -8 840 -16 1664 -12 1210 -13 1502 -3 1511 7 7
157 101 333 210 176 109 331 205 344 214 18 11 55 16 135 18 61 1 139 7 174
13 85 14 259 96 417 195 l130 81 3 -1466 c2 -806 0 -1525 -4 -1599z m296 2906
c107 -66 218 -135 245 -152 28 -18 313 -196 635 -395 322 -200 720 -447 885
-550 1578 -982 3051 -1893 3100 -1917 190 -95 446 -134 672 -102 162 22 622
138 874 219 328 106 683 255 914 383 33 18 103 56 157 85 53 28 185 113 294
188 380 262 697 578 898 894 105 165 125 193 104 145 -14 -32 -25 -49 -153
-245 -185 -282 -498 -589 -847 -831 -161 -111 -329 -219 -343 -219 -2 0 -70
-36 -152 -81 -209 -114 -590 -271 -888 -367 -268 -87 -740 -202 -904 -222
-204 -24 -461 22 -636 114 -44 23 -831 509 -1750 1080 -918 572 -1682 1046
-1697 1055 -42 25 -1255 779 -1328 826 -36 23 -118 74 -182 114 -85 53 -118
79 -118 93 0 13 4 17 13 12 6 -4 100 -61 207 -127z m5031 74 l23 -18 -32 -5
c-28 -4 -32 -2 -32 19 0 28 10 29 41 4z m3672 -95 c34 -25 80 -64 103 -88 83
-88 144 -236 144 -349 l0 -54 -19 42 c-36 77 -130 150 -243 187 -14 4 -18 17
-18 57 0 68 -31 129 -94 185 -27 25 -47 46 -45 49 14 13 58 24 82 20 15 -3 56
-25 90 -49z m-3579 25 c3 -5 -5 -16 -19 -25 -25 -16 -25 -16 -13 9 12 26 23
31 32 16z m145 -15 c9 -11 2 -20 -40 -45 -52 -33 -53 -30 -11 27 27 36 34 38
51 18z m-12929 -96 c0 -13 -11 -13 -30 0 -12 8 -11 10 8 10 12 0 22 -4 22 -10z
m11720 -29 c0 -54 25 -167 49 -223 23 -55 91 -132 135 -155 17 -9 53 -22 80
-29 88 -23 242 9 354 73 61 36 52 9 -10 -30 -160 -101 -350 -129 -475 -71 -43
20 -104 63 -116 81 -4 7 -13 18 -20 25 -50 51 -106 181 -131 300 l-12 56 30
-5 c17 -3 47 0 66 5 19 6 38 11 43 11 4 1 7 -17 7 -38z m-11556 -24 c11 -10
11 -15 0 -25 -16 -15 -41 -16 -49 -2 -4 6 6 10 22 11 15 0 22 3 16 6 -7 2 -13
9 -13 14 0 13 9 11 24 -4z m10625 -262 c-4 -132 -8 -295 -8 -362 l-1 -123 -35
-14 c-60 -25 -105 -31 -105 -13 0 9 5 19 12 23 7 5 8 3 3 -6 -6 -9 -4 -11 5
-5 10 6 10 11 -3 20 -19 14 -24 85 -6 85 7 0 10 31 9 93 -1 50 -2 183 -1 294
l1 202 53 15 c28 9 59 20 67 25 8 6 15 9 15 8 1 -1 -2 -110 -6 -242z m-10549
155 c0 -13 -11 -13 -30 0 -12 8 -11 10 8 10 12 0 22 -4 22 -10z m16190 -65
c45 -23 117 -92 139 -132 5 -11 15 -41 20 -65 10 -43 7 -53 -45 -179 -251
-608 -794 -1147 -1564 -1554 -96 -51 -220 -112 -275 -135 -55 -23 -127 -55
-160 -70 -101 -47 -470 -176 -660 -230 -99 -29 -275 -73 -392 -99 l-211 -48
-7 66 c-9 94 -40 238 -64 301 -11 30 -17 57 -13 61 4 4 85 24 181 44 349 75
762 206 1081 345 184 79 464 222 554 281 32 22 60 39 62 39 11 0 190 122 297
202 450 337 737 699 931 1171 15 37 18 38 48 32 18 -4 53 -18 78 -30z m-16030
15 c0 -5 -4 -10 -10 -10 -5 0 -10 5 -10 10 0 6 5 10 10 10 6 0 10 -4 10 -10z
m12085 -72 c-7 -17 -74 -63 -81 -56 -5 6 66 68 78 68 4 0 5 -6 3 -12z m3 -69
c-2 -4 -113 -80 -248 -168 -285 -187 -283 -187 -380 -121 -62 42 -122 101
-154 151 l-18 30 33 -20 c50 -29 144 -51 222 -51 140 0 296 55 447 158 57 39
77 48 87 40 8 -6 12 -15 11 -19z m-788 -157 c21 -32 59 -75 84 -96 l46 -38
-132 -87 c-73 -48 -258 -169 -411 -269 l-278 -182 -30 23 c-84 61 -171 215
-173 304 l-1 53 350 228 350 228 79 -53 c58 -39 88 -67 116 -111z m-5884
-1259 c7 -703 13 -1445 13 -1650 l1 -372 -37 -10 c-21 -6 -55 -11 -75 -11 -33
0 -38 3 -39 23 -4 184 -8 484 -13 1007 -8 801 -15 1453 -21 1916 l-5 361 52 1
c29 0 64 5 78 10 14 5 27 8 29 6 2 -2 10 -579 17 -1281z m-6373 1090 c-110
-305 -180 -598 -208 -877 -20 -194 -19 -294 5 -691 11 -181 20 -335 20 -342 0
-7 -16 -23 -36 -37 l-37 -25 -151 102 c-83 56 -173 125 -202 152 -46 45 -55
62 -87 160 -48 143 -67 254 -67 390 0 273 87 528 269 783 91 129 283 322 426
430 60 45 111 82 112 82 1 0 -19 -57 -44 -127z m17143 43 c-6 -76 -15 -103
-80 -253 -202 -463 -571 -882 -1088 -1238 -179 -123 -270 -178 -488 -293 -47
-24 -95 -50 -106 -58 -68 -42 -551 -232 -759 -299 -200 -64 -595 -168 -622
-164 -5 1 -10 0 -13 -1 -3 -1 -12 -3 -20 -5 -8 -2 -26 -7 -40 -11 -14 -3 -35
-7 -47 -8 -13 0 -23 -4 -23 -8 0 -5 -6 -8 -14 -8 -12 0 -14 18 -12 93 1 51 5
98 10 105 4 6 5 16 2 20 -3 5 0 9 7 10 7 0 23 4 36 8 19 6 22 4 16 -7 -7 -11
-6 -12 7 -2 8 7 19 9 23 5 5 -4 5 -2 2 4 -4 6 49 22 146 43 261 56 788 218
962 296 17 7 95 41 175 76 429 183 875 463 1184 742 128 116 123 110 245 244
184 202 378 499 463 711 18 45 35 82 37 82 2 0 1 -38 -3 -84z m-15356 -126 c0
-5 -7 -10 -15 -10 -8 0 -15 5 -15 10 0 6 7 10 15 10 8 0 15 -4 15 -10z m80
-56 c0 -2 -9 -4 -20 -4 -11 0 -20 4 -20 9 0 5 9 7 20 4 11 -3 20 -7 20 -9z
m9487 -99 c24 -77 71 -153 135 -218 l59 -60 -35 -28 c-19 -16 -51 -52 -72 -80
-27 -37 -39 -47 -45 -37 -5 7 -12 13 -16 14 -29 3 -107 49 -141 83 -22 23 -38
41 -35 41 3 0 -6 15 -20 33 -14 18 -34 62 -45 97 -17 58 -18 70 -6 109 18 60
56 97 114 111 27 6 57 18 67 25 16 12 18 11 21 -13 2 -15 10 -49 19 -77z
m-5393 -207 l7 -267 -21 -11 c-19 -10 -181 -138 -265 -210 -54 -46 -218 -204
-290 -280 -510 -534 -918 -1232 -1116 -1904 -78 -267 -120 -513 -135 -789 l-6
-118 -31 -16 c-60 -30 -85 -33 -109 -11 -18 15 -19 18 -5 14 15 -5 16 -2 7 14
-6 11 -12 46 -15 78 -3 33 -9 72 -15 86 -5 15 -10 90 -10 167 0 86 -4 139 -10
139 -5 0 -10 18 -10 40 0 22 5 40 10 40 6 0 10 33 10 79 0 44 4 81 9 83 6 2
11 56 12 121 1 64 5 117 8 117 3 0 7 10 7 23 6 78 22 183 34 212 4 11 13 47
20 80 7 33 16 69 20 80 4 11 16 49 25 85 9 36 21 74 25 85 5 11 11 29 13 40 7
25 26 81 44 122 7 17 13 40 13 51 0 12 5 24 10 27 6 3 10 17 10 30 0 13 6 30
13 37 8 7 13 28 13 45 -1 17 3 31 8 30 13 -3 36 43 36 70 0 12 5 25 11 28 6 4
8 14 5 22 -3 8 -2 12 3 9 12 -8 17 11 16 52 -1 17 3 32 7 32 5 0 6 5 3 10 -3
6 0 13 9 16 8 3 18 19 21 36 5 23 9 27 16 17 7 -12 9 -11 10 1 1 8 1 20 0 26
-4 34 229 370 417 602 299 368 619 671 959 905 105 72 195 129 199 124 1 -1 5
-122 8 -269z m11117 155 c-12 -20 -14 -14 -5 12 4 9 9 14 11 11 3 -2 0 -13 -6
-23z m-15081 7 c0 -13 -11 -13 -30 0 -12 8 -11 10 8 10 12 0 22 -4 22 -10z
m107 -16 c-3 -3 -12 -4 -19 -1 -8 3 -5 6 6 6 11 1 17 -2 13 -5z m14949 -51
c-8 -15 -15 -25 -16 -21 0 12 23 58 27 54 3 -2 -2 -17 -11 -33z m-16 -41 c0
-5 -7 -17 -15 -28 -14 -18 -14 -17 -4 9 12 27 19 34 19 19z m-14803 -48 c-3
-3 -12 -4 -19 -1 -8 3 -5 6 6 6 11 1 17 -2 13 -5z m110 -20 c-3 -3 -12 -4 -19
-1 -8 3 -5 6 6 6 11 1 17 -2 13 -5z m14607 -90 c-55 -104 -178 -277 -290 -409
-437 -514 -1094 -934 -1911 -1220 -169 -60 -526 -163 -658 -190 -44 -9 -107
-23 -140 -30 -33 -8 -76 -17 -95 -20 -34 -6 -34 -5 -15 10 11 9 14 14 8 10 -7
-3 -13 -2 -13 4 0 14 75 34 127 35 22 1 37 3 32 7 -5 3 74 24 175 48 416 96
1007 315 1335 494 80 44 179 98 220 120 143 76 449 298 618 446 215 188 411
410 541 615 52 80 95 146 97 146 2 0 -12 -30 -31 -66z m-5064 -169 c168 -104
317 -195 332 -204 15 -9 249 -153 521 -320 l494 -304 -49 -46 c-27 -25 -59
-61 -70 -79 -20 -32 -21 -33 -45 -16 -14 9 -22 11 -19 5 4 -6 -26 11 -66 38
-40 26 -84 54 -99 62 -43 24 -89 52 -158 98 -36 24 -73 46 -81 49 -8 3 -29 16
-46 29 -17 13 -49 33 -71 46 -89 49 -203 120 -214 133 -6 8 -17 14 -24 14 -6
0 -22 9 -35 20 -13 11 -28 20 -33 20 -6 0 -18 7 -27 15 -21 19 -179 115 -189
115 -5 0 -25 14 -46 30 -21 17 -43 30 -49 30 -7 0 -21 8 -32 18 -17 16 -98 67
-160 100 -13 7 -24 18 -24 23 0 6 -4 8 -9 5 -5 -3 -14 1 -21 9 -7 8 -17 15
-22 15 -5 0 -35 18 -68 39 -32 22 -68 42 -79 46 -12 3 -21 10 -21 14 0 4 -11
13 -25 19 -14 6 -25 16 -25 22 0 16 132 151 144 147 6 -3 148 -89 316 -192z
m-9410 115 c0 -13 -11 -13 -30 0 -12 8 -11 10 8 10 12 0 22 -4 22 -10z m107
-16 c-3 -3 -12 -4 -19 -1 -8 3 -5 6 6 6 11 1 17 -2 13 -5z m3402 -1809 c9
-596 11 -646 30 -722 26 -103 70 -192 129 -262 36 -42 42 -55 31 -61 -8 -5
-59 -38 -114 -74 -69 -45 -102 -61 -107 -53 -4 7 -8 167 -8 357 0 190 -5 374
-10 409 -13 79 -40 132 -85 168 -199 160 -608 -149 -736 -557 -24 -74 -24 -80
-24 -515 l0 -439 -455 -297 -455 -296 -7 136 c-4 75 -9 300 -10 501 -2 306 0
385 15 490 104 726 449 1481 978 2137 98 121 357 405 384 420 7 5 51 44 98 88
80 76 140 126 266 222 l56 42 7 -527 c4 -290 12 -815 17 -1167z m-3269 1665
c0 -13 -11 -13 -30 0 -12 8 -11 10 8 10 12 0 22 -4 22 -10z m40 -6 c0 -14 -3
-14 -15 -4 -8 7 -15 14 -15 16 0 2 7 4 15 4 8 0 15 -7 15 -16z m67 -10 c-3 -3
-12 -4 -19 -1 -8 3 -5 6 6 6 11 1 17 -2 13 -5z m-27 -34 c0 -11 -2 -20 -3 -20
-2 0 -12 9 -22 20 -18 19 -17 20 3 20 15 0 22 -6 22 -20z m187 -126 c-3 -3
-12 -4 -19 -1 -8 3 -5 6 6 6 11 1 17 -2 13 -5z m80 0 c-3 -3 -12 -4 -19 -1 -8
3 -5 6 6 6 11 1 17 -2 13 -5z m-27 -24 c0 -5 -7 -10 -15 -10 -8 0 -15 5 -15
10 0 6 7 10 15 10 8 0 15 -4 15 -10z m4997 -195 c24 -125 25 -149 30 -606 l5
-477 -53 -36 c-30 -20 -55 -32 -57 -27 -1 4 3 28 9 52 9 31 14 221 17 659 3
422 7 607 14 590 5 -14 21 -83 35 -155z m-4837 75 c0 -5 8 -10 18 -11 9 0 12
-3 6 -5 -6 -3 -24 2 -40 11 -26 13 -27 15 -6 15 12 0 22 -4 22 -10z m107 -16
c-3 -3 -12 -4 -19 -1 -8 3 -5 6 6 6 11 1 17 -2 13 -5z m-27 -24 c0 -5 -7 -10
-15 -10 -8 0 -15 5 -15 10 0 6 7 10 15 10 8 0 15 -4 15 -10z m80 -40 c0 -5 -4
-10 -9 -10 -6 0 -13 5 -16 10 -3 6 1 10 9 10 9 0 16 -4 16 -10z m80 -79 c0 -5
-9 -7 -20 -4 -11 3 -20 7 -20 9 0 2 9 4 20 4 11 0 20 -4 20 -9z m107 -17 c-3
-3 -12 -4 -19 -1 -8 3 -5 6 6 6 11 1 17 -2 13 -5z m53 -64 c0 -5 -4 -10 -9
-10 -6 0 -13 5 -16 10 -3 6 1 10 9 10 9 0 16 -4 16 -10z m187 -96 c-3 -3 -12
-4 -19 -1 -8 3 -5 6 6 6 11 1 17 -2 13 -5z m4353 -748 c-10 -18 -29 -41 -40
-51 l-21 -19 7 369 7 369 31 32 31 33 3 -351 c2 -334 1 -352 -18 -382z m-4300
684 c0 -5 -4 -10 -9 -10 -6 0 -13 5 -16 10 -3 6 1 10 9 10 9 0 16 -4 16 -10z
m9611 -146 c51 -11 106 -15 176 -12 l103 5 19 -52 c33 -87 50 -156 61 -245 17
-143 23 -132 -72 -129 -46 2 -88 7 -95 12 -6 4 -22 9 -35 10 -40 4 -121 39
-180 79 -31 21 -60 38 -64 38 -4 0 -31 24 -59 53 -69 70 -103 98 -148 122 -21
11 -41 24 -44 28 -6 10 33 61 92 119 l47 46 62 -29 c35 -16 96 -36 137 -45z
m-9418 59 c-7 -2 -19 -2 -25 0 -7 3 -2 5 12 5 14 0 19 -2 13 -5z m3425 -98
l63 -42 -41 -6 c-57 -7 -139 -51 -202 -107 -49 -43 -98 -68 -98 -50 0 4 -27
25 -60 46 -33 21 -60 41 -60 45 0 12 111 109 144 126 101 53 161 50 254 -12z
m-3378 25 c0 -5 -4 -10 -9 -10 -6 0 -13 5 -16 10 -3 6 1 10 9 10 9 0 16 -4 16
-10z m107 -96 c-3 -3 -12 -4 -19 -1 -8 3 -5 6 6 6 11 1 17 -2 13 -5z m153 -39
c0 -7 6 -15 13 -18 6 -2 0 -4 -15 -3 -20 1 -24 4 -16 14 8 9 6 12 -6 12 -10 0
-15 4 -11 10 8 13 35 1 35 -15z m-4699 -142 l87 -59 -54 -47 c-29 -26 -61 -61
-71 -77 -16 -28 -53 -42 -53 -20 0 6 -6 10 -14 10 -8 0 -16 3 -18 8 -4 9 -156
112 -166 112 -4 0 -22 14 -40 31 -37 34 -38 29 27 104 19 22 48 50 64 62 l30
22 61 -43 c33 -24 100 -70 147 -103z m172 -81 c-6 -2 -22 2 -34 8 -21 12 -21
12 7 29 29 18 29 18 34 -8 3 -16 1 -27 -7 -29z m-48 -1 c3 -5 19 -12 36 -16
28 -6 30 -9 23 -38 -7 -35 -75 -118 -105 -129 -21 -8 -79 0 -79 11 0 4 -10 7
-21 8 -12 1 -24 4 -27 7 -13 13 129 166 154 166 7 0 15 -4 19 -9z m7920 -11
c3 -5 -1 -10 -9 -10 -9 0 -16 5 -16 10 0 6 4 10 9 10 6 0 13 -4 16 -10z m284
-152 c-9 -98 -17 -142 -36 -183 -13 -29 -14 -28 -8 25 3 30 8 87 12 125 5 55
24 115 37 115 1 0 -2 -37 -5 -82z m5838 40 c-3 -7 -5 -2 -5 12 0 14 2 19 5 13
2 -7 2 -19 0 -25z m-25 -20 c-7 -7 -12 -8 -12 -2 0 14 12 26 19 19 2 -3 -1
-11 -7 -17z m27 -67 c-2 -33 -6 -37 -23 -33 -18 5 -18 6 -2 12 10 3 17 9 17
13 -3 23 0 47 4 47 3 0 5 -17 4 -39z m-14729 -60 c27 -48 113 -125 222 -200
46 -32 812 -566 1703 -1187 891 -622 1656 -1155 1700 -1185 44 -31 774 -540
1622 -1131 847 -591 1576 -1093 1620 -1115 139 -72 240 -98 430 -112 167 -12
264 1 618 87 540 131 1158 360 1530 566 77 43 182 101 234 128 52 28 193 119
314 202 574 395 996 854 1259 1371 53 104 97 187 98 183 0 -3 -44 -96 -97
-205 -262 -531 -685 -996 -1281 -1405 -128 -88 -247 -167 -265 -176 -17 -8
-117 -63 -222 -120 -415 -228 -991 -445 -1560 -588 -165 -42 -340 -80 -390
-86 -101 -11 -364 -4 -410 11 -152 51 -219 78 -275 108 -52 29 -1434 990
-4360 3032 -1910 1332 -2363 1650 -2400 1684 -42 39 -99 119 -113 160 -11 29
1 19 23 -22z m8990 -21 c0 -37 40 -142 76 -197 19 -30 59 -79 88 -108 l54 -53
-311 -204 c-172 -113 -313 -204 -315 -203 -1 1 20 35 47 76 96 143 173 326
201 474 27 141 38 164 93 200 61 40 67 41 67 15z m5740 -10 c0 -5 -4 -10 -10
-10 -5 0 -10 5 -10 10 0 6 5 10 10 10 6 0 10 -4 10 -10z m-6190 -114 l35 -13
-54 -6 c-87 -10 -206 -94 -286 -200 -28 -38 -28 -38 -48 -18 -20 19 -20 20 11
58 74 94 176 167 253 182 56 11 49 11 89 -3z m-180 -10 c0 -2 -17 -15 -38 -28
-45 -31 -137 -122 -160 -160 -9 -16 -20 -28 -24 -28 -14 0 35 71 81 117 49 50
141 114 141 99z m245 -31 c30 -13 30 -13 -24 -14 -128 -2 -281 -128 -377 -308
-24 -46 -25 -47 -18 -13 12 62 51 134 107 195 66 73 121 112 190 136 62 22 82
23 122 4z m41 -50 c51 -33 70 -143 35 -210 -8 -16 -16 -32 -16 -35 -6 -22 -26
-59 -35 -65 -7 -5 -9 17 -4 74 l7 81 -46 0 -45 0 -7 -60 c-10 -85 -28 -104
-101 -104 l-58 -1 -22 -55 c-19 -47 -21 -57 -8 -66 11 -9 5 -11 -25 -10 -29 1
-37 5 -33 15 3 9 1 12 -6 7 -6 -4 -26 0 -44 7 -18 8 -39 13 -46 11 -7 -1 -8 0
-2 3 6 3 6 11 1 21 -18 34 62 184 143 271 116 123 234 166 312 116z m1057
-461 c260 -169 484 -314 499 -323 161 -97 736 -482 769 -514 59 -59 82 -117
76 -189 -10 -118 -215 -489 -404 -731 -602 -772 -1669 -1385 -2893 -1663 -226
-51 -245 -58 -235 -82 32 -83 84 -342 85 -423 0 -24 -4 -27 -34 -27 -19 0 -39
-3 -45 -7 -6 -3 -11 -2 -11 3 0 5 -26 10 -57 10 -33 0 -71 7 -88 16 -16 9 -37
16 -46 16 -26 0 -91 30 -123 57 -16 13 -49 34 -73 45 -23 11 -43 25 -43 32 0
6 -18 30 -40 54 -22 24 -40 46 -40 50 0 5 -16 14 -34 20 -19 7 -38 22 -41 33
-4 12 -12 18 -21 15 -8 -3 -14 -1 -14 4 0 5 -9 12 -20 15 -19 6 -19 8 10 49
16 24 52 64 80 89 l50 45 76 -35 c68 -31 158 -56 143 -39 -3 3 -38 17 -77 30
-86 29 -109 44 -682 440 -245 169 -597 412 -782 539 -185 128 -337 235 -338
238 0 3 105 74 233 158 127 84 333 219 458 300 l225 147 39 -25 c79 -53 78
-53 485 213 201 132 373 249 382 260 25 30 22 41 -16 79 l-35 33 196 128 c179
118 198 128 217 116 51 -33 79 -42 111 -37 37 6 750 469 769 499 8 13 6 25 -6
46 l-17 28 77 77 c60 60 149 123 412 296 184 121 339 220 343 220 4 1 220
-137 480 -305z m-1201 71 c37 -29 64 -55 61 -58 -5 -6 -88 49 -149 98 -28 23
-29 24 -4 18 14 -4 55 -30 92 -58z m61 -4 c20 -12 35 -27 31 -32 -6 -10 -36
10 -89 57 -32 28 -25 25 58 -25z m-2182 -21 c82 -53 131 -60 222 -34 16 5 17
-6 17 -133 1 -76 5 -223 10 -328 8 -166 13 -201 38 -280 55 -170 145 -321 275
-460 l75 -81 -297 -194 c-351 -231 -341 -228 -441 -152 -84 64 -121 103 -165
177 -70 118 -74 143 -83 590 -5 220 -6 429 -2 465 14 127 77 281 167 408 42
58 47 62 84 62 28 0 55 -11 100 -40z m2056 6 c-6 -8 -15 -12 -19 -9 -4 2 -2
10 5 17 6 8 15 12 19 9 4 -2 2 -10 -5 -17z m-41 -23 c-6 -6 -36 9 -36 18 0 5
9 4 20 -3 10 -7 18 -14 16 -15z m44 -135 c0 -5 -9 -8 -20 -8 -18 0 -19 3 -8
20 9 14 14 16 20 7 4 -7 8 -15 8 -19z m-1095 -233 c28 -80 50 -117 99 -167 68
-67 123 -90 228 -96 112 -6 198 15 323 77 98 50 117 42 31 -12 -97 -62 -208
-102 -322 -117 -231 -30 -420 99 -505 343 -39 110 -38 127 4 128 17 0 50 6 72
13 l40 12 7 -66 c3 -36 14 -87 23 -115z m840 -93 c-6 -4 -27 -20 -47 -36 -34
-24 -38 -25 -38 -9 0 13 14 24 43 35 50 20 54 21 42 10z m49 -15 c16 -12 -13
-34 -275 -205 -346 -227 -333 -223 -441 -141 -71 53 -150 140 -113 125 35 -15
108 -25 185 -25 155 -1 360 76 531 200 45 32 85 59 89 59 3 0 14 -6 24 -13z
m-888 -197 c7 0 22 -16 34 -35 11 -19 43 -54 70 -78 l49 -44 -194 -127 c-143
-94 -200 -126 -214 -121 -64 20 -196 230 -207 330 l-6 50 126 82 126 81 102
-69 c56 -38 107 -69 114 -69z m-2275 -865 l4 -310 -35 -17 c-19 -9 -48 -18
-65 -20 -16 -2 -33 -7 -37 -13 -4 -6 -8 -2 -8 8 0 9 5 17 11 17 5 0 7 5 4 10
-4 6 -11 8 -16 5 -5 -4 -5 4 1 19 6 17 6 105 0 248 -16 376 -17 466 -3 461 7
-3 10 -9 8 -14 -7 -10 72 12 101 29 18 10 19 6 25 -51 4 -34 8 -201 10 -372z
m953 263 c2 -7 12 -42 22 -78 21 -75 91 -186 158 -250 l46 -44 -223 -146
c-530 -349 -687 -450 -701 -450 -26 0 -130 125 -167 201 -36 73 -65 176 -53
188 11 12 899 590 907 590 4 1 9 -5 11 -11z m5324 -328 c-4 -78 -8 -93 -53
-180 -27 -52 -51 -97 -54 -100 -3 -3 -7 -10 -8 -17 -8 -41 -98 -195 -206 -351
-258 -374 -608 -714 -1040 -1011 -208 -143 -276 -183 -572 -344 -229 -124
-632 -291 -950 -395 -302 -98 -565 -166 -605 -157 -17 4 -20 3 -12 -3 11 -7 7
-11 -13 -16 -14 -4 -30 -4 -35 -1 -6 4 -10 2 -10 -3 0 -5 -6 -9 -12 -9 -7 -1
-42 -8 -77 -16 -64 -16 -81 -15 -81 4 0 6 4 8 9 5 5 -3 11 3 14 15 4 16 3 18
-9 8 -12 -10 -14 -1 -14 60 0 46 4 70 10 66 6 -3 10 -1 10 4 0 6 -4 11 -10 11
-5 0 -10 7 -10 17 0 9 3 13 7 10 3 -4 11 -1 17 7 12 15 121 40 135 32 5 -4 11
-2 13 3 1 5 64 24 138 41 346 79 977 293 1177 399 10 5 52 23 93 41 41 17 161
77 265 132 630 333 1136 743 1491 1209 108 142 270 392 300 466 9 21 21 41 26
44 5 3 9 9 8 13 -1 4 11 36 26 70 33 73 38 65 32 -54z m-70 -341 c-248 -536
-706 -1047 -1301 -1453 -98 -67 -154 -111 -147 -116 8 -5 7 -9 -5 -13 -11 -5
-14 -3 -9 5 12 19 -21 3 -191 -96 -462 -270 -989 -480 -1635 -653 -52 -14
-109 -27 -126 -28 -17 -1 -35 -4 -40 -7 -24 -14 -64 -18 -64 -7 0 8 -6 7 -17
-3 -10 -9 -26 -14 -35 -13 -10 2 -18 -1 -18 -6 0 -5 -9 -9 -20 -9 -22 0 -27
23 -7 37 18 13 107 34 118 28 5 -4 9 -1 9 6 0 7 10 9 25 7 14 -3 22 -1 19 4
-4 5 2 9 12 7 11 -1 26 1 34 4 38 16 144 38 157 33 8 -3 12 -2 9 3 -3 4 31 16
75 26 44 9 212 61 372 115 454 152 733 277 1246 562 134 75 486 330 656 477
210 181 182 154 367 356 195 214 366 462 485 700 48 96 89 173 90 171 2 -2
-25 -63 -59 -137z m-6185 29 c10 -71 82 -202 153 -278 l65 -68 -56 -53 c-31
-29 -64 -66 -73 -81 -18 -30 -49 -37 -58 -13 -4 8 -12 15 -20 15 -8 0 -14 5
-14 10 0 6 -11 10 -25 10 -29 0 -112 81 -152 149 -30 49 -53 136 -53 198 0 32
5 45 20 53 11 6 18 15 15 21 -4 5 0 9 7 9 8 0 20 6 26 12 12 12 121 53 148 57
6 0 14 -18 17 -41z m496 -535 c141 -97 297 -205 346 -239 336 -230 1042 -718
1049 -725 6 -5 -14 -32 -48 -67 -32 -32 -67 -73 -78 -90 l-19 -31 -30 27 c-17
15 -44 34 -59 42 -16 8 -73 47 -127 86 -54 38 -144 101 -200 138 -56 37 -107
73 -113 81 -7 8 -18 15 -24 15 -7 0 -27 13 -46 30 -19 16 -40 29 -47 30 -7 0
-16 6 -20 13 -4 8 -37 32 -73 55 -101 64 -159 104 -199 138 -20 17 -51 39 -68
48 -18 9 -47 29 -65 45 -18 15 -45 34 -59 42 -35 19 -140 90 -159 108 -8 8
-44 33 -80 57 -36 24 -96 65 -134 91 -61 43 -111 75 -155 102 -12 7 -10 16 14
47 31 41 123 134 132 134 3 0 121 -80 262 -177z m1986 -1563 c-3 -5 -12 -10
-18 -10 -7 0 -6 4 3 10 19 12 23 12 15 0z m22 -12 c-3 -8 -6 -5 -6 6 -1 11 2
17 5 13 3 -3 4 -12 1 -19z m3 -58 c0 -22 -2 -40 -4 -40 -2 0 -13 -3 -23 -6
-14 -5 -15 -4 -4 4 8 6 15 26 15 46 1 49 16 46 16 -4z m37 -240 c1 -11 -2 -20
-5 -20 -4 0 -8 9 -9 20 -1 11 2 20 5 20 4 0 8 -9 9 -20z"/>
<path d="M24433 26914 c-18 -8 -59 -66 -67 -94 -5 -18 -1 -15 13 10 10 20 31
48 46 63 28 28 29 29 8 21z"/>
<path d="M22462 25499 c-46 -9 -100 -35 -342 -159 -30 -16 -392 -201 -805
-411 -1141 -582 -1168 -595 -1204 -626 -28 -24 -35 -37 -35 -66 0 -103 180
-171 358 -136 77 16 2318 1164 2359 1209 15 17 27 39 27 51 0 29 -25 74 -52
91 -68 44 -209 65 -306 47z m266 -44 c64 -35 73 -45 74 -86 1 -23 -6 -39 -26
-56 -36 -30 -43 -29 -44 8 0 17 -9 40 -18 50 -16 18 -29 19 -128 16 -61 -2
-118 -7 -126 -10 -11 -5 -20 5 -33 33 -10 22 -23 40 -28 40 -5 0 0 -18 11 -39
15 -30 17 -41 7 -49 -15 -12 -312 -165 -1894 -973 l-291 -149 -19 37 c-10 20
-24 39 -31 41 -8 2 -5 -8 8 -30 21 -35 26 -68 10 -68 -5 0 -17 -12 -27 -26
-16 -26 -16 -27 6 -45 26 -21 21 -25 -12 -8 -69 36 -94 90 -62 136 19 28 54
46 435 241 173 88 617 314 985 502 758 388 875 446 919 460 17 5 76 8 131 6
89 -2 107 -6 153 -31z m-128 -155 c0 -38 2 -70 5 -70 3 0 24 9 46 21 23 11 43
19 45 17 3 -4 -499 -263 -1451 -751 -126 -65 -339 -175 -473 -243 -134 -69
-245 -124 -247 -122 -2 2 464 244 1036 537 571 294 1037 536 1035 538 -2 2
-36 -12 -75 -31 -39 -20 -73 -36 -76 -36 -3 0 -5 43 -5 95 0 111 2 113 103
114 l57 1 0 -70z m-172 -57 l-3 -97 -950 -487 c-522 -268 -956 -493 -962 -499
-7 -6 -13 -8 -13 -5 0 3 -13 -1 -28 -9 -40 -21 -120 -30 -186 -21 l-56 6 0 44
0 43 243 125 c133 68 357 183 497 255 140 72 503 257 805 413 303 155 570 292
595 305 25 13 49 23 53 23 4 1 6 -43 5 -96z m-2222 -1091 c-4 -3 -11 -1 -18 6
-8 8 -8 15 3 28 13 16 14 16 17 -5 2 -13 1 -25 -2 -29z"/>
<path d="M23261 25469 c-54 -9 -89 -24 -256 -111 -49 -25 -398 -205 -775 -398
-377 -194 -775 -399 -885 -455 -110 -57 -416 -214 -680 -350 -264 -135 -493
-259 -509 -275 -43 -42 -41 -88 4 -135 40 -42 102 -64 195 -72 111 -9 166 9
378 117 1186 609 2810 1455 2840 1480 72 60 32 144 -90 185 -54 18 -159 25
-222 14z m239 -36 c96 -43 119 -97 65 -153 -33 -35 -45 -31 -45 15 0 54 -17
62 -123 63 -52 1 -110 -3 -128 -8 -22 -7 -35 -7 -37 0 -2 5 -14 25 -28 45 -21
31 -22 36 -8 42 76 29 235 27 304 -4z m-310 -40 c23 -30 23 -61 0 -75 -19 -10
-1501 -774 -1555 -801 -22 -11 -317 -163 -655 -337 -338 -174 -634 -327 -658
-339 l-42 -22 -11 28 c-6 15 -18 36 -26 46 -9 9 -14 19 -12 21 4 3 655 339
1289 664 140 72 566 291 945 486 380 196 693 356 697 356 4 0 16 -12 28 -27z
m205 -119 l-1 -65 -77 -42 c-120 -64 -82 -55 49 12 65 33 120 59 122 57 2 -3
-678 -357 -1533 -797 -104 -54 -458 -237 -785 -407 -502 -260 -630 -324 -599
-299 2 2 603 313 1334 691 l1330 687 0 107 c0 122 -2 119 105 121 l55 1 0 -66z
m-187 -65 l-3 -100 -1325 -686 c-729 -378 -1347 -694 -1375 -704 -51 -19 -137
-24 -194 -13 -31 6 -32 8 -29 51 l3 45 600 309 c330 171 715 369 855 441 907
467 1436 741 1445 749 21 21 26 4 23 -92z m-2975 -1327 c21 -23 34 -82 18 -82
-6 0 -18 -11 -27 -25 -13 -20 -14 -28 -4 -40 7 -8 17 -15 22 -15 6 0 5 7 -2
16 -11 12 -10 18 4 32 17 16 18 15 14 -20 -2 -21 0 -38 6 -38 5 0 7 -3 4 -6
-9 -8 -68 24 -100 54 -37 35 -37 75 1 113 34 34 42 35 64 11z"/>
<path d="M23280 25052 c-71 -24 -2254 -1155 -2300 -1191 -76 -61 -58 -133 45
-186 55 -28 65 -30 175 -30 l117 0 89 44 c49 24 413 213 809 419 917 478 1024
533 1229 640 195 100 236 132 236 185 0 28 -7 41 -35 66 -56 49 -100 63 -210
67 -79 3 -112 0 -155 -14z m261 -12 c50 -14 101 -50 117 -82 16 -34 3 -69 -36
-97 l-30 -21 0 43 c-1 65 -20 75 -136 71 -53 -1 -109 -5 -126 -9 -24 -5 -31
-3 -37 12 -3 10 -15 30 -25 45 l-19 27 38 10 c21 5 49 12 63 15 34 6 147 -2
191 -14z m-281 -52 c11 -18 20 -40 20 -48 0 -10 -115 -75 -322 -183 -178 -92
-352 -183 -388 -201 -373 -196 -1482 -767 -1483 -765 -2 2 -10 21 -20 42 -9
20 -21 37 -27 37 -5 0 -1 -17 10 -37 26 -48 25 -54 -5 -77 -29 -21 -33 -51 -9
-60 9 -4 14 -9 11 -13 -12 -12 -85 46 -95 75 -13 39 2 69 53 103 34 22 445
236 1410 735 110 57 337 175 505 263 168 87 308 159 313 160 4 1 16 -14 27
-31z m193 -54 c22 -8 14 -124 -10 -142 -20 -15 -129 -72 -138 -72 -3 0 -5 45
-5 100 l0 100 28 6 c15 3 32 7 37 9 17 6 73 5 88 -1z m-173 -132 l0 -99 -986
-513 -986 -513 -73 -5 c-40 -2 -90 -1 -110 2 -36 7 -36 8 -33 52 l3 45 645
335 c355 185 749 389 875 454 127 65 325 168 440 229 116 61 213 110 218 111
4 0 7 -44 7 -98z m299 34 c-2 -2 -119 -63 -259 -136 -140 -73 -304 -159 -365
-190 -60 -32 -384 -201 -720 -375 -335 -174 -666 -347 -735 -383 -69 -36 -120
-60 -115 -54 12 13 2176 1141 2189 1142 5 0 7 -2 5 -4z m-2509 -1118 c0 -29
-2 -31 -15 -17 -9 9 -13 23 -9 32 10 28 24 19 24 -15z m107 -64 c-3 -3 -12 -4
-19 -1 -8 3 -5 6 6 6 11 1 17 -2 13 -5z"/>
<path d="M18692 23983 c-12 -2 -20 -8 -17 -12 2 -5 -6 -6 -19 -4 -59 12 -225
-104 -240 -167 -6 -25 -6 -25 7 2 16 35 44 65 91 99 49 36 73 38 27 2 -39 -31
-62 -80 -54 -114 4 -13 17 -39 31 -57 22 -29 23 -34 10 -45 -9 -7 -20 -20 -25
-31 -10 -17 -14 -15 -52 24 -22 23 -39 45 -37 49 2 3 0 15 -5 26 -12 26 0
-699 12 -745 5 -20 26 -53 48 -74 l39 -38 48 26 c27 14 52 26 55 26 4 0 9 -26
13 -58 l7 -59 53 -16 c138 -44 300 -42 441 5 52 17 83 36 125 75 l55 51 -3
389 c-3 365 -4 391 -23 430 -29 61 -94 116 -128 110 -65 -13 -66 -13 -69 17
-5 37 -27 60 -52 53 -11 -3 -18 -2 -15 3 3 4 -2 11 -11 14 -23 9 -26 8 -18 -6
4 -7 -2 -5 -14 6 -14 12 -31 17 -51 14 -17 -2 -28 -1 -25 4 5 8 -162 9 -204 1z
m252 -35 c49 -11 49 -11 23 -24 -19 -10 -33 -11 -52 -4 -34 13 -169 13 -216 0
-51 -14 -102 -51 -118 -85 -13 -26 -12 -33 7 -65 l21 -37 -27 -9 c-24 -9 -31
-6 -55 20 -24 26 -28 37 -24 69 7 50 34 79 108 112 93 42 210 50 333 23z m120
-33 c3 -8 2 -60 -1 -115 -7 -109 -8 -111 -74 -130 l-29 -9 0 102 c0 56 -3 113
-7 126 -3 14 -2 22 3 18 5 -3 20 1 34 9 33 18 66 18 74 -1z m-205 -4 c7 -5 11
-13 7 -19 -3 -6 -3 -13 2 -15 4 -3 9 -53 11 -111 l3 -106 -33 0 c-17 0 -49 5
-69 11 -33 10 -43 9 -79 -12 -23 -12 -41 -26 -41 -31 0 -4 -7 -8 -15 -8 -12 0
-15 14 -15 63 0 51 -4 68 -20 82 -34 30 -23 78 25 109 53 35 191 58 224 37z
m342 -61 c65 -47 99 -136 75 -195 -27 -65 -131 -130 -246 -154 -60 -13 -209
-16 -268 -5 -41 7 -88 29 -114 51 -15 14 -16 18 -3 43 17 32 40 44 63 31 31
-16 166 -32 222 -26 94 10 186 44 233 85 38 34 42 42 42 83 0 37 -6 52 -29 76
-34 35 -19 41 25 11z m-37 -21 c83 -98 -39 -205 -249 -216 -89 -5 -205 10
-205 27 0 17 35 20 92 9 188 -37 377 66 299 162 -19 24 -19 24 2 36 31 17 32
17 61 -18z m-547 -483 l1 -373 -45 -23 c-24 -12 -46 -20 -49 -18 -2 3 -8 157
-13 344 -10 380 -8 389 59 424 19 11 37 19 40 20 3 0 6 -168 7 -374z m677
-357 c-11 -75 -118 -147 -261 -175 -81 -15 -220 -19 -241 -6 -9 6 -14 85 -18
322 -3 173 -6 317 -6 320 -2 22 10 25 100 22 160 -5 321 45 387 122 l30 35 7
-302 c4 -166 5 -318 2 -338z"/>
<path d="M24747 23982 c-9 -2 -15 -7 -12 -11 2 -5 -6 -6 -19 -4 -33 7 -143
-48 -185 -91 -19 -20 -29 -36 -23 -36 7 0 15 7 19 15 6 17 76 68 108 78 16 6
15 3 -5 -13 -14 -11 -28 -20 -31 -20 -14 0 -46 -81 -42 -105 3 -13 20 -40 37
-58 l32 -34 -27 -31 -27 -30 -47 45 c-49 46 -54 68 -30 128 6 16 5 18 -5 8
-20 -18 -29 -169 -30 -504 -2 -331 -2 -331 66 -388 l37 -30 63 34 63 33 3 -66
3 -66 47 -18 c165 -61 434 -33 544 57 73 60 73 59 81 458 5 196 4 375 0 398
-7 32 -22 55 -62 96 -57 56 -80 63 -125 38 -36 -21 -40 -19 -40 18 0 38 -30
73 -55 63 -9 -3 -14 -2 -11 3 3 5 -3 11 -14 14 -13 3 -18 1 -13 -6 4 -7 0 -6
-10 1 -9 8 -22 10 -28 6 -8 -5 -9 -3 -4 6 6 10 0 12 -23 8 -17 -2 -29 -1 -26
4 3 4 -36 8 -85 8 -66 0 -91 -3 -91 -12 0 -9 -3 -9 -8 -3 -4 6 -15 9 -25 7z
m252 -34 c64 -11 64 -11 37 -25 -21 -11 -35 -12 -58 -4 -44 16 -166 14 -223
-3 -94 -29 -132 -99 -85 -159 l20 -25 -25 -6 c-34 -9 -59 7 -79 48 -29 62 3
115 97 156 84 37 173 42 316 18z m119 -144 l3 -122 -51 -12 c-28 -7 -53 -11
-55 -8 -2 2 -1 56 2 121 6 114 7 118 32 132 14 8 35 14 46 12 19 -2 20 -10 23
-123z m-204 110 c13 -5 16 -26 16 -130 0 -135 2 -131 -62 -114 -44 13 -86 -4
-130 -52 l-28 -29 0 74 c0 64 -3 78 -25 103 -14 16 -25 36 -25 44 0 24 28 59
61 76 51 26 158 41 193 28z m349 -64 c19 -11 48 -39 63 -62 24 -34 29 -52 29
-99 0 -55 -2 -60 -40 -95 -77 -71 -189 -105 -343 -105 -117 0 -182 18 -250 67
-5 3 27 62 38 69 5 3 33 -1 62 -9 119 -33 249 -28 348 15 112 48 146 136 79
205 -38 39 -34 42 14 14z m-24 -25 c44 -51 42 -88 -9 -136 -62 -59 -153 -83
-284 -76 -105 6 -146 14 -146 27 0 17 35 20 92 9 110 -22 231 4 282 60 26 28
25 76 -3 104 l-21 24 22 11 c33 15 33 15 67 -23z m-557 -668 l-7 -178 -50 -28
-51 -28 3 121 c2 67 4 225 6 352 3 256 6 265 70 304 l32 20 2 -193 c2 -105 0
-272 -5 -370z m668 127 c-7 -314 -8 -322 -30 -352 -33 -44 -84 -77 -160 -102
-69 -23 -223 -37 -283 -26 l-35 7 3 62 c3 34 7 183 9 331 l5 269 95 -2 c52 -1
124 3 158 10 80 15 175 60 213 99 16 16 29 29 31 27 1 -1 -2 -146 -6 -323z"/>
<path d="M15600 21996 c0 -2 7 -7 16 -10 8 -3 12 -2 9 4 -6 10 -25 14 -25 6z"/>
<path d="M20400 19276 c0 -2 7 -7 16 -10 8 -3 12 -2 9 4 -6 10 -25 14 -25 6z"/>
<path d="M28467 21528 c-116 -63 -232 -227 -272 -383 -23 -89 -22 -92 40 -122
30 -15 55 -30 55 -33 0 -3 -25 -19 -55 -35 -30 -17 -57 -36 -60 -43 -10 -26
17 -114 46 -147 21 -23 119 -80 327 -188 163 -84 314 -159 334 -166 38 -12 89
-8 143 12 42 15 105 58 105 70 0 6 -8 3 -18 -6 -10 -9 -39 -26 -66 -38 -65
-28 -121 -20 -166 24 -29 28 -67 94 -58 102 2 1 18 6 36 10 28 6 32 4 32 -15
0 -32 26 -75 57 -95 35 -24 83 -21 137 8 22 12 46 22 51 22 19 1 35 16 74 68
50 68 74 116 100 201 31 100 29 117 -20 148 l-41 27 33 17 c55 28 62 39 54 92
-9 63 -30 111 -63 145 -25 26 -143 90 -526 286 -164 84 -190 87 -279 39z m270
-50 c71 -35 130 -66 133 -69 3 -4 66 -37 140 -74 151 -75 166 -85 127 -85 -94
0 -269 -168 -319 -306 -7 -19 -16 -34 -21 -34 -5 0 -42 18 -81 39 -39 21 -163
86 -276 143 -235 120 -221 101 -159 219 41 77 137 177 199 207 74 36 113 30
257 -40z m493 -255 c33 -23 58 -52 71 -83 15 -35 28 -120 19 -125 -4 -3 -10
13 -14 35 -4 28 -15 46 -39 65 -110 83 -285 -60 -361 -295 -21 -65 -21 -65
-62 -68 l-40 -3 1 58 c3 107 74 243 178 341 92 86 189 115 247 75z m54 -163
c20 -51 20 -66 0 -74 -24 -9 -34 -7 -34 8 0 7 -9 25 -21 40 -37 47 -104 32
-174 -39 -49 -49 -77 -98 -94 -162 -7 -24 -21 -47 -31 -53 -24 -13 -24 -16 -5
47 43 145 156 276 253 293 51 9 86 -10 106 -60z m-83 -109 c98 -52 114 -63
114 -85 1 -13 -3 -22 -7 -20 -4 3 -21 -2 -36 -12 -29 -16 -30 -16 -141 41
l-111 57 31 39 c17 21 32 39 33 39 1 0 54 -27 117 -59z m-581 -146 c170 -88
310 -163 310 -166 0 -13 -69 -39 -102 -39 -32 0 -91 29 -507 247 l-123 65 48
29 c27 16 52 28 56 26 4 -1 147 -74 318 -162z m432 21 c8 -1 29 -10 48 -21 19
-11 52 -29 73 -40 20 -11 37 -23 37 -28 0 -18 -43 -91 -76 -127 -38 -42 -91
-65 -125 -55 -12 4 -29 26 -41 51 -16 38 -29 49 -86 79 -93 48 -105 56 -64 49
37 -7 111 17 135 44 8 9 18 28 22 42 10 34 26 42 46 24 10 -9 23 -16 31 -18z
m232 -28 c-35 -116 -84 -198 -155 -262 -97 -87 -189 -81 -216 14 -12 42 -12
46 9 62 22 16 23 16 30 -9 33 -120 184 -62 265 102 11 22 23 53 27 70 7 28 21
45 39 45 5 0 5 -10 1 -22z"/>
<path d="M24665 19340 c-71 -11 -117 -39 -195 -119 -59 -59 -87 -98 -119 -162
-43 -88 -78 -207 -68 -233 3 -8 29 -27 57 -41 27 -14 50 -29 50 -33 0 -4 -24
-21 -53 -38 -52 -30 -52 -30 -51 -78 3 -92 26 -111 345 -288 156 -87 290 -158
297 -158 6 0 12 -4 12 -9 0 -14 92 -36 138 -32 24 1 64 12 88 22 49 22 164
113 164 131 0 6 -22 -10 -49 -35 -102 -96 -204 -118 -278 -59 -38 30 -82 96
-72 107 3 2 19 8 36 11 27 5 31 3 36 -24 10 -52 56 -93 107 -99 58 -6 102 13
167 71 28 25 53 43 56 40 9 -9 49 55 41 67 -4 7 -3 9 3 6 12 -8 46 61 37 75
-4 6 -2 8 4 5 6 -4 16 11 25 38 9 25 12 45 6 45 -5 0 -9 8 -9 18 0 13 2 14 9
4 6 -10 10 -8 14 10 16 59 10 74 -57 121 -8 6 -5 12 8 20 62 40 67 49 57 104
-14 70 -44 126 -83 156 -47 36 -633 354 -660 359 -13 2 -41 1 -63 -2z m141
-53 c45 -23 172 -91 282 -152 200 -110 201 -110 164 -118 -20 -4 -41 -12 -46
-17 -12 -12 -6 -12 54 0 48 9 96 -5 134 -38 30 -27 66 -113 65 -157 l0 -40
-17 40 c-35 87 -99 114 -187 81 -100 -39 -215 -193 -246 -331 -11 -51 -14 -55
-46 -61 -19 -4 -39 -2 -45 4 -5 5 -10 35 -10 66 -1 113 132 325 250 398 19 12
30 24 24 26 -18 6 -118 -75 -163 -134 -23 -30 -58 -85 -78 -122 -38 -70 -50
-77 -91 -50 -47 30 -172 98 -180 98 -5 0 -10 3 -12 8 -1 4 -46 29 -98 56 -52
27 -117 62 -143 78 -26 15 -50 28 -53 28 -3 0 -12 6 -20 14 -12 12 -8 26 28
98 73 147 217 266 323 267 17 0 66 -18 111 -42z m581 -428 c42 -30 55 -97 23
-116 -17 -11 -21 -9 -35 21 -27 56 -85 71 -142 37 -76 -47 -128 -116 -158
-209 -10 -30 -26 -57 -38 -63 -19 -11 -20 -9 -13 22 11 60 72 172 120 226 55
61 105 94 155 103 39 7 55 3 88 -21z m-113 -105 c25 -14 46 -22 46 -17 0 4 4
3 8 -4 4 -6 34 -27 67 -45 49 -28 60 -39 60 -60 1 -14 -4 -24 -10 -22 -5 2
-23 -4 -38 -15 l-28 -18 -106 57 c-58 32 -110 63 -116 69 -7 7 1 21 27 46 21
19 39 35 40 35 2 0 24 -12 50 -26z m-830 -33 c17 -11 33 -18 38 -15 4 3 8 0 8
-6 0 -6 5 -8 10 -5 6 3 10 2 10 -2 0 -12 56 -44 64 -36 3 3 6 1 6 -6 0 -7 5
-9 10 -6 6 3 10 2 10 -3 0 -12 76 -53 84 -45 3 3 6 1 6 -6 0 -7 5 -9 10 -6 6
3 10 2 10 -2 0 -12 56 -44 64 -36 3 3 6 1 6 -6 0 -7 5 -9 10 -6 6 3 10 2 10
-2 0 -12 56 -44 64 -36 3 3 6 1 6 -6 0 -7 5 -9 10 -6 6 3 10 2 10 -3 0 -5 36
-28 80 -52 l79 -44 -30 -19 c-47 -31 -107 -32 -155 -5 -23 13 -158 88 -302
167 l-261 145 52 32 c29 18 54 33 57 33 3 1 18 -8 34 -18z m722 -121 c24 -17
44 -29 44 -26 0 3 21 -8 47 -24 26 -17 52 -30 59 -30 6 0 17 -6 23 -14 16 -18
-14 -80 -66 -137 -42 -47 -81 -69 -119 -69 -32 0 -74 35 -74 61 0 21 -20 37
-105 85 l-60 33 38 1 c22 0 56 10 81 25 36 21 44 32 55 75 7 27 17 50 23 50 5
0 29 -14 54 -30z m248 -72 c-50 -170 -180 -308 -290 -308 -51 0 -80 22 -99 75
-13 38 -13 41 7 58 21 17 22 17 45 -22 42 -71 118 -64 201 21 44 44 102 150
102 186 0 19 23 41 42 42 4 0 0 -24 -8 -52z"/>
<path d="M26564 18120 c-43 -6 -108 -41 -163 -87 -91 -75 -193 -268 -203 -383
-3 -32 0 -37 49 -65 29 -16 52 -32 52 -35 1 -3 -23 -19 -52 -35 -39 -23 -53
-37 -55 -57 -4 -37 33 -119 65 -142 56 -41 598 -337 636 -347 82 -22 171 9
260 91 32 29 56 54 54 57 -3 2 9 18 26 36 40 43 84 138 102 222 16 76 10 94
-38 117 l-29 14 39 24 c32 21 39 31 41 64 2 21 -1 43 -7 49 -6 6 -8 -5 -5 -33
4 -28 2 -40 -5 -35 -6 3 -11 15 -11 25 0 35 -51 81 -95 87 -115 15 -275 -154
-317 -334 -12 -49 -15 -53 -46 -59 -46 -9 -55 4 -50 75 10 136 160 348 284
402 90 39 170 12 209 -69 25 -52 41 -55 20 -4 -9 20 -30 49 -48 64 -36 32
-596 340 -642 355 -16 5 -48 6 -71 3z m170 -67 c61 -32 113 -61 116 -64 3 -4
23 -15 45 -26 22 -11 56 -29 75 -40 19 -11 75 -42 124 -69 l88 -49 -38 -6
c-69 -10 -141 -59 -218 -148 -46 -55 -123 -188 -117 -206 1 -5 -6 -2 -16 6
-17 15 -56 37 -243 137 -47 25 -98 54 -115 66 -16 12 -32 21 -35 21 -24 3
-150 78 -150 90 0 9 16 48 36 88 46 90 166 213 234 239 72 26 95 22 214 -39z
m527 -393 c22 -12 49 -61 49 -89 0 -11 -9 -25 -20 -31 -12 -6 -20 -7 -20 -1 0
5 -12 23 -26 40 -62 74 -185 5 -255 -143 -16 -34 -29 -69 -29 -78 0 -10 -10
-22 -21 -29 -21 -11 -22 -10 -15 22 20 105 138 269 218 304 39 17 92 19 119 5z
m-121 -95 c0 6 3 6 8 -1 12 -18 98 -65 105 -57 4 3 7 2 7 -4 0 -6 16 -18 35
-27 45 -22 45 -47 -2 -78 l-37 -24 -105 59 c-59 33 -108 61 -110 63 -2 2 15
22 39 45 33 31 45 38 51 27 5 -7 9 -8 9 -3z m-810 -30 c0 6 3 6 8 -1 12 -17
79 -54 85 -47 4 3 7 1 7 -6 0 -7 5 -9 10 -6 6 3 10 2 10 -2 0 -12 56 -44 64
-36 3 3 6 1 6 -6 0 -7 5 -9 10 -6 6 3 10 2 10 -2 0 -12 56 -44 64 -36 3 3 6 1
6 -6 0 -7 5 -9 10 -6 6 3 10 2 10 -3 0 -9 50 -37 63 -34 4 1 7 -3 7 -9 0 -5 5
-7 10 -4 6 3 10 2 10 -2 0 -5 49 -35 110 -68 60 -33 110 -62 110 -65 0 -14
-66 -40 -102 -40 -33 0 -83 24 -275 130 -129 72 -236 130 -237 130 -2 0 -29
15 -59 33 l-55 34 49 28 c27 16 49 34 49 40 0 5 5 3 10 -5 5 -8 10 -10 10 -5z
m776 -165 c48 -27 90 -50 93 -50 4 0 12 -5 18 -11 24 -24 -66 -152 -128 -185
-56 -29 -105 -9 -119 49 -4 14 -31 36 -80 64 -74 42 -75 43 -38 43 46 0 70 9
61 23 -3 5 -1 7 4 4 16 -10 63 31 63 54 0 25 17 59 30 59 5 0 48 -22 96 -50z
m174 -73 c-20 -52 -41 -87 -109 -178 -22 -29 -23 -32 -5 -26 32 11 -58 -64
-101 -84 -85 -39 -175 -12 -217 67 -12 24 -20 45 -18 47 3 3 18 7 34 9 26 3
31 -1 38 -27 24 -91 104 -117 196 -64 29 16 52 34 52 39 0 13 -17 13 -25 0
-11 -17 -83 -50 -111 -50 -42 0 -81 29 -94 71 -11 31 -11 41 0 54 19 23 33 18
50 -18 31 -67 106 -59 187 20 43 43 103 150 103 185 0 9 8 21 18 27 26 15 26
-7 2 -72z"/>
<path d="M27045 14790 c-3 -5 -1 -10 4 -10 6 0 11 5 11 10 0 6 -2 10 -4 10 -3
0 -8 -4 -11 -10z"/>
<path d="M21744 11840 c0 -179 2 -252 3 -162 2 89 2 235 0 325 -1 89 -3 16 -3
-163z"/>
<path d="M21768 11513 c6 -2 9 -10 6 -15 -4 -7 -2 -8 5 -4 13 9 5 26 -12 25
-9 0 -8 -2 1 -6z"/>
<path d="M14808 16953 c7 -3 16 -2 19 1 4 3 -2 6 -13 5 -11 0 -14 -3 -6 -6z"/>
<path d="M25210 13429 c0 -5 5 -7 10 -4 6 3 10 8 10 11 0 2 -4 4 -10 4 -5 0
-10 -5 -10 -11z"/>
<path d="M24330 12880 c-8 -5 -12 -12 -9 -15 4 -3 12 1 19 10 14 17 11 19 -10
5z"/>
<path d="M17355 12531 c-158 -63 -424 -206 -589 -317 -197 -134 -333 -239
-341 -265 -12 -37 8 -59 133 -140 161 -104 172 -105 279 -22 202 157 441 312
628 405 105 53 218 106 252 118 60 22 83 45 68 70 -7 11 -72 54 -199 132 -95
57 -127 60 -231 19z m106 -3 c7 -148 5 -228 -7 -228 -11 0 -14 17 -14 68 0 37
-3 91 -6 120 -6 44 -4 52 10 52 9 0 16 -6 17 -12z m-46 -30 c3 -18 5 -73 3
-121 l-3 -88 -170 -73 c-188 -80 -397 -201 -555 -321 -54 -41 -102 -75 -106
-75 -3 0 -30 15 -60 33 -52 31 -53 33 -54 78 0 44 2 47 63 95 146 117 410 286
579 370 160 81 273 133 290 134 4 0 10 -15 13 -32z m-335 -446 l0 -68 -84 -58
c-47 -31 -118 -83 -158 -116 -97 -77 -113 -80 -183 -40 -31 18 -53 36 -48 40
48 43 229 167 335 231 73 43 134 79 136 79 1 0 2 -31 2 -68z m-633 -134 c-3
-7 -5 -2 -5 12 0 14 2 19 5 13 2 -7 2 -19 0 -25z"/>
<path d="M15320 10825 c0 -8 9 -15 20 -15 11 0 20 7 20 15 0 8 -9 15 -20 15
-11 0 -20 -7 -20 -15z"/>
<path d="M20680 3970 c18 -12 147 -12 175 0 13 6 -17 9 -85 9 -71 1 -100 -2
-90 -9z"/>
<path d="M21205 3350 c-4 -6 -11 -8 -16 -5 -5 4 -9 4 -9 1 0 -3 8 -10 18 -15
14 -8 18 -6 19 10 2 21 -3 24 -12 9z"/>
<path d="M21116 3178 c3 -5 10 -6 15 -3 13 9 11 12 -6 12 -8 0 -12 -4 -9 -9z"/>
<path d="M21508 28393 c-10 -2 -18 -9 -18 -14 0 -6 7 -6 18 -1 9 5 24 12 32
15 13 5 13 5 0 5 -8 0 -23 -2 -32 -5z"/>
<path d="M30658 19650 c-1 -33 0 -70 4 -82 3 -13 6 14 7 60 1 95 -6 110 -11
22z"/>
<path d="M30648 19528 c-6 -16 0 -140 7 -146 3 -3 5 31 5 76 0 79 -3 96 -12
70z"/>
<path d="M30643 19290 c0 -47 2 -66 4 -42 2 23 2 61 0 85 -2 23 -4 4 -4 -43z"/>
<path d="M30629 19155 c0 -19 -1 -51 -1 -70 -1 -19 2 -38 5 -42 4 -3 7 28 7
70 0 75 -9 111 -11 42z"/>
<path d="M29079 14397 c5 -13 19 -39 31 -58 28 -44 17 -2 -12 47 -23 39 -31
44 -19 11z"/>
<path d="M29130 14294 c0 -16 43 -124 48 -120 2 3 -5 32 -18 66 -20 54 -30 72
-30 54z"/>
<path d="M29185 14140 c14 -82 49 -230 55 -230 4 0 -1 35 -11 78 -10 42 -19
86 -19 97 -1 11 -7 34 -15 50 -13 27 -14 27 -10 5z"/>
<path d="M29243 13070 c0 -41 2 -58 4 -37 2 20 2 54 0 75 -2 20 -4 3 -4 -38z"/>
<path d="M29233 12860 c0 -47 2 -66 4 -42 2 23 2 61 0 85 -2 23 -4 4 -4 -43z"/>
<path d="M29310 12420 c6 -11 13 -20 16 -20 2 0 0 9 -6 20 -6 11 -13 20 -16
20 -2 0 0 -9 6 -20z"/>
<path d="M29330 12386 c0 -2 8 -10 18 -17 15 -13 16 -12 3 4 -13 16 -21 21
-21 13z"/>
<path d="M15114 11808 l-19 -23 23 19 c21 18 27 26 19 26 -2 0 -12 -10 -23
-22z"/>
<path d="M15064 11748 l-19 -23 23 19 c21 18 27 26 19 26 -2 0 -12 -10 -23
-22z"/>
<path d="M14997 11660 c-21 -27 -35 -50 -33 -50 2 0 23 23 46 50 23 28 38 50
33 50 -5 0 -26 -22 -46 -50z"/>
<path d="M14910 11540 c-12 -16 -19 -30 -16 -30 2 0 14 14 26 30 12 17 19 30
16 30 -2 0 -14 -13 -26 -30z"/>
<path d="M14841 11444 c-22 -31 -38 -61 -35 -66 7 -11 33 21 34 40 0 7 12 29
26 48 15 19 24 34 21 34 -3 0 -24 -25 -46 -56z"/>
<path d="M14835 11240 c3 -5 8 -10 11 -10 2 0 4 5 4 10 0 6 -5 10 -11 10 -5 0
-7 -4 -4 -10z"/>
<path d="M13756 10208 c-112 -119 -241 -289 -285 -375 -29 -57 -20 -55 14 3
15 26 61 95 103 153 71 100 94 127 236 278 33 35 57 63 53 63 -3 0 -57 -55
-121 -122z"/>
<path d="M22321 9905 c-1 -11 8 -34 18 -52 11 -17 36 -85 57 -152 21 -67 39
-119 42 -117 2 3 -11 53 -29 113 -36 119 -87 240 -88 208z"/>
<path d="M22441 9544 c0 -11 3 -14 6 -6 3 7 2 16 -1 19 -3 4 -6 -2 -5 -13z"/>
<path d="M23295 7485 c11 -9 29 -21 40 -26 l20 -10 -20 16 c-11 9 -29 21 -40
26 l-20 10 20 -16z"/>
<path d="M24550 6666 c0 -2 8 -10 18 -17 15 -13 16 -12 3 4 -13 16 -21 21 -21
13z"/>
</g>
</svg>
